<?xml version="1.0" encoding="UTF-8" standalone="no"?><svg width="100%" height="100%" viewBox="0 0 32 32" version="1.1" xmlns="http://www.w3.org/2000/svg">
	<style>
		path {
			fill: #000
		}
		@media (prefers-color-scheme: dark) {
			path {
				fill: #fff
			}
		}
	</style>
	<path d="M30.883,25.485c-0.244,-0.01 -0.528,-0.066 -0.85,-0.169c-0.322,-0.102 -0.62,-0.236 -0.893,-0.402c-0.342,-0.215 -0.618,-0.462 -0.828,-0.74c-0.21,-0.278 -0.393,-0.667 -0.549,-1.165c-0.694,-2.256 -1.499,-4.89 -2.417,-7.903c-0.918,-3.012 -1.909,-6.223 -2.974,-9.631l-1.349,0l-5.247,16.01l-5.455,-16.01l-1.294,0c-0.966,3.418 -1.967,6.965 -3.003,10.642c-1.035,3.677 -1.728,6.14 -2.08,7.39c-0.088,0.303 -0.217,0.572 -0.388,0.806c-0.171,0.234 -0.403,0.449 -0.696,0.645c-0.244,0.166 -0.529,0.29 -0.857,0.373c-0.327,0.083 -0.622,0.134 -0.886,0.154l0,1.04l8.473,-0l0,-1.04c-0.742,-0.039 -1.374,-0.112 -1.896,-0.22c-0.523,-0.107 -0.784,-0.288 -0.784,-0.542c0,-0.098 0.015,-0.227 0.044,-0.388c0.029,-0.161 0.054,-0.291 0.073,-0.388c0.224,-0.86 0.622,-2.28 1.193,-4.263c0.57,-1.982 1.417,-4.95 2.539,-8.905l5.187,15.453l1.434,-0l5.235,-15.782c0.705,2.425 1.313,4.546 1.822,6.36c0.51,1.815 0.931,3.368 1.264,4.659c0.235,0.91 0.382,1.533 0.44,1.87c0.059,0.337 0.088,0.622 0.088,0.857c0,0.332 -0.227,0.61 -0.681,0.835c-0.454,0.224 -1.189,0.376 -2.204,0.454l-0,1.04l7.539,-0l-0,-1.04Z"/>
</svg>