<svg xmlns="http://www.w3.org/2000/svg" width="933.333" height="933.333" preserveAspectRatio="xMidYMid meet" version="1.0" viewBox="0 0 700 700"><metadata>Created by potrace 1.11, written by Peter Selinger 2001-2013</metadata><g fill="#000" stroke="none"><path d="M3265 6672 c-99 -32 -254 -84 -345 -116 -91 -32 -556 -190 -1035 -351 -1448 -488 -1590 -536 -1594 -541 -9 -8 9 -15 195 -80 381 -132 896 -300 2019 -660 215 -69 514 -165 666 -215 170 -55 292 -89 319 -89 34 0 1374 435 2793 907 42 14 81 23 85 19 4 -4 6 -398 4 -874 l-3 -867 -106 -195 c-59 -107 -111 -202 -116 -211 -15 -24 281 -506 299 -487 6 7 73 117 149 243 l137 230 -27 50 c-14 28 -61 115 -103 195 l-77 145 -3 915 -2 916 65 24 c36 13 65 27 65 30 0 6 -255 93 -1870 636 -481 162 -960 324 -1065 361 -104 36 -208 67 -230 69 -29 3 -91 -13 -220 -54z m3234 -3375 c-30 -59 -57 -107 -60 -107 -6 0 -53 85 -112 200 -5 10 11 55 49 135 l56 120 61 -121 60 -121 -54 -106z" transform="translate(0.000000,700.000000) scale(0.100000,-0.100000)"/><path d="M4560 4634 c-261 -85 -539 -175 -618 -199 l-142 -45 -273 0 c-236 0 -281 3 -337 19 -46 13 -1008 317 -1157 366 -7 2 -26 -57 -53 -168 -23 -95 -46 -182 -50 -194 -9 -23 -10 -23 -240 -23 l-230 0 0 -2060 0 -2060 2060 0 2060 0 0 2060 0 2060 -220 0 c-168 0 -222 3 -225 13 -2 6 -21 95 -42 196 -21 102 -43 186 -48 187 -6 2 -224 -67 -485 -152z m-1065 -1666 l870 -1031 5 789 c3 434 2 813 -2 842 -11 89 -48 114 -239 162 -68 17 -137 36 -152 42 l-28 11 3 101 3 101 560 0 560 0 0 -99 0 -100 -175 -51 c-96 -28 -183 -54 -192 -57 -17 -7 -18 -80 -18 -1328 l0 -1320 -112 1 -113 0 -885 1055 c-487 581 -888 1058 -892 1060 -4 2 -6 -377 -4 -843 3 -845 3 -848 24 -890 34 -65 95 -104 212 -133 25 -6 75 -20 113 -31 l67 -20 0 -84 0 -85 -555 0 -555 0 0 84 0 85 178 56 c97 31 183 58 190 60 9 4 12 231 12 1092 l-1 1088 -139 148 -140 148 0 89 0 90 268 0 267 -1 870 -1031z" transform="translate(0.000000,700.000000) scale(0.100000,-0.100000)"/></g></svg>