<?xml version="1.0" standalone="no"?>
<!DOCTYPE svg PUBLIC "-//W3C//DTD SVG 20010904//EN"
 "http://www.w3.org/TR/2001/REC-SVG-20010904/DTD/svg10.dtd">
<svg version="1.0" xmlns="http://www.w3.org/2000/svg"
 width="700.000000pt" height="700.000000pt" viewBox="0 0 700.000000 700.000000"
 preserveAspectRatio="xMidYMid meet">
<metadata>
Created by potrace 1.14, written by Peter Selinger 2001-2017
</metadata>
<g transform="translate(0.000000,700.000000) scale(0.100000,-0.100000)"
fill="#000000" stroke="none">
<path d="M1975 5800 c-1 -3 -46 -158 -98 -345 -53 -187 -112 -396 -132 -465
-20 -69 -37 -132 -39 -140 -4 -14 -34 -120 -141 -500 -37 -130 -73 -260 -175
-622 -6 -21 -10 -39 -10 -40 1 -2 -4 -16 -10 -33 -7 -16 -13 -38 -15 -48 -5
-23 -8 -35 -34 -122 -19 -64 -100 -351 -252 -895 -33 -118 -67 -237 -75 -265
-8 -27 -43 -153 -79 -280 -76 -272 -106 -336 -196 -425 -101 -101 -251 -169
-409 -187 -30 -3 -57 -10 -61 -14 -4 -7 -4 -200 0 -219 1 -4 1783 -5 1838 -1
9 1 12 31 10 113 -2 96 -4 111 -19 114 -9 1 -54 5 -100 8 -46 4 -96 8 -113 11
-16 2 -48 6 -70 9 -139 18 -231 50 -264 92 -19 25 -21 36 -16 84 3 30 13 84
21 120 9 36 17 74 19 84 3 10 9 33 15 50 5 17 23 81 39 141 16 61 52 191 81
290 80 282 272 952 361 1260 44 154 82 287 84 295 6 28 196 695 206 728 6 18
13 32 15 29 2 -2 98 -285 213 -628 248 -737 886 -2637 894 -2659 3 -8 10 -28
15 -45 l9 -30 153 -3 c116 -2 155 1 162 10 4 7 166 490 359 1073 194 583 422
1269 506 1525 85 256 156 472 158 480 2 8 4 15 5 15 0 0 27 79 58 175 l58 175
33 -115 c18 -63 37 -126 42 -140 5 -14 11 -34 14 -45 2 -11 56 -202 120 -425
141 -490 277 -973 340 -1210 25 -96 52 -195 60 -220 41 -135 160 -632 170
-710 17 -127 15 -167 -8 -211 -56 -105 -248 -180 -522 -204 -44 -4 -82 -9 -84
-11 -8 -8 -6 -216 3 -221 5 -4 376 -6 825 -6 l816 0 1 104 c0 57 -1 110 -4
116 -2 7 -18 13 -36 13 -46 0 -169 36 -252 75 -94 43 -150 82 -223 155 -95 96
-134 186 -251 580 -16 52 -58 192 -95 310 -36 118 -80 260 -96 315 -17 55 -41
134 -54 175 -13 41 -81 262 -150 490 -211 692 -285 931 -312 1015 -14 44 -29
94 -33 110 -4 17 -33 111 -64 210 -31 99 -75 239 -97 310 -100 320 -123 396
-150 485 -49 157 -31 144 -192 144 -81 1 -142 -3 -147 -9 -4 -5 -69 -199 -145
-430 -75 -231 -183 -562 -240 -735 -57 -173 -136 -414 -176 -535 -39 -121
-100 -305 -134 -410 -35 -104 -127 -386 -205 -625 -79 -239 -166 -507 -195
-595 -51 -154 -53 -159 -65 -130 -11 28 -41 117 -270 790 -48 143 -150 440
-225 660 -75 220 -151 445 -170 500 -18 55 -86 253 -150 440 -64 187 -118 345
-119 350 -2 6 -6 17 -9 25 -3 8 -17 49 -31 90 -62 189 -206 603 -211 608 -7 7
-276 9 -280 2z"/>
</g>
</svg>
