<svg viewBox="0 0 32 32" xmlns="http://www.w3.org/2000/svg"><style>@media (prefers-color-scheme:dark){path{fill:#fff}}</style><path d="M30.883 25.485c-.244-.01-.528-.066-.85-.169-.322-.102-.62-.236-.893-.402-.342-.215-.618-.462-.828-.74-.21-.278-.393-.667-.549-1.165-.694-2.256-1.499-4.89-2.417-7.903-.918-3.012-1.909-6.223-2.974-9.631h-1.349l-5.247 16.01-5.455-16.01H9.027C8.061 8.893 7.06 12.44 6.024 16.117c-1.035 3.677-1.728 6.14-2.08 7.39-.088.303-.217.572-.388.806-.171.234-.403.449-.696.645-.244.166-.529.29-.857.373-.327.083-.622.134-.886.154v1.04H9.59v-1.04c-.742-.039-1.374-.112-1.896-.22-.523-.107-.784-.288-.784-.542 0-.098.015-.227.044-.388.029-.161.054-.291.073-.388.224-.86.622-2.28 1.193-4.263.57-1.982 1.417-4.95 2.539-8.905l5.187 15.453h1.434l5.235-15.782c.705 2.425 1.313 4.546 1.822 6.36.51 1.815.931 3.368 1.264 4.659.235.91.382 1.533.44 1.87.059.337.088.622.088.857 0 .332-.227.61-.681.835-.454.224-1.189.376-2.204.454v1.04h7.539v-1.04z"/></svg>