<svg viewBox="0 0 16 16" xmlns="http://www.w3.org/2000/svg"><style>@media (prefers-color-scheme:dark){path{fill:#fff}}</style><path d="M7.98835.48174c-.69683 0-1.29686.576-1.29686 1.29686s.60003 1.27342 1.29686 1.27342c.7449 0 1.3203-.55256 1.3203-1.27342 0-.72087-.57543-1.29686-1.3203-1.29686zm-1.1992 2.84373-4.28897 8.72082.7285-.01953 3.10935-6.06459.77147 1.86326-2.66209 6.16398c-.39356.90516-.55022 1.00391-1.67186 1.00391v.45313h4.82038v-.45313c-1.00357 0-1.43553-.03989-1.43553-.45312 0-.11807.07934-.29497.17773-.55079l1.6621-4.01383 1.66212 4.01383c.09839.25581.17773.43272.17773.55079 0 .41321-.43392.45312-1.4375.45312v.45313h4.82227v-.45313c-1.1216 0-1.28027-.09872-1.67382-1.0039l-2.66013-6.164.77147-1.86325 3.10936 6.06459.7285.01953-4.28898-8.72082H6.94759z"/></svg>