<svg xmlns="http://www.w3.org/2000/svg" xmlns:xlink="http://www.w3.org/1999/xlink" viewBox="0 0 498.651 332.625"><g id="figure_1"><path id="patch_1" fill="#fff" d="M0 332.625261h498.650726V0H0z"/><g id="axes_1"><path id="patch_2" fill="#fff" d="M45.050726 279h446.4V7.2h-446.4z"/><g id="matplotlib.axis_1"><g id="xtick_1"><g id="line2d_1"><defs><path id="mfd76ebc2f7" stroke="#000" stroke-width=".8" d="M0 0v3.5"/></defs><use x="45.051" y="279" stroke="#000" stroke-width=".8" xlink:href="#mfd76ebc2f7"/></g><g id="text_1"><defs><path id="CMR17-48" d="M42 31.84375c0 6.125-.09375 16.578125-4.296875 24.609375C34 63.484375 28.09375 66 22.90625 66 18.09375 66 12 63.78125 8.203125 56.5625c-4-7.546875-4.40625-16.890625-4.40625-24.71875C3.796875 26.109375 3.90625 17.375 7 9.734375 11.296875-.609375 19-2 22.90625-2 27.5-2 34.5-.109375 38.59375 9.4375 41.59375 16.375 42 24.5 42 31.84375zm-19.09375-32.25C16.5-.40625 12.703125 5.125 11.296875 12.75c-1.09375 5.9375-1.09375 14.578125-1.09375 20.203125 0 7.734375 0 14.15625 1.296875 20.28125 1.90625 8.546875 7.5 11.15625 11.40625 11.15625 4.09375 0 9.390625-2.71875 11.296875-10.953125C35.5 47.71875 35.59375 40.984375 35.59375 32.953125c0-6.53125 0-14.578125-1.1875-20.5-2.109375-10.953125-8-12.859375-11.5-12.859375z"/></defs><use transform="matrix(.19925 0 0 -.19925 40.481678 299.836997)" xlink:href="#CMR17-48"/></g></g><g id="xtick_2"><use id="line2d_2" x="156.651" y="279" stroke="#000" stroke-width=".8" xlink:href="#mfd76ebc2f7"/><g id="text_2"><defs><path id="CMR17-49" d="M26.59375 63.796875c0 2.09375-.09375 2.203125-1.5 2.203125-3.890625-4.640625-9.796875-6.109375-15.390625-6.3125-.296875 0-.796875 0-.90625-.1875-.09375-.203125-.09375-.40625-.09375-2.5C11.796875 57 17 57.59375 21 59.984375v-52.6875c0-3.5-.203125-4.703125-8.796875-4.703125h-3V0C14 .09375 19 .1875 23.796875.1875S33.59375.09375 38.40625 0v2.59375h-3c-8.609375 0-8.8125 1.09375-8.8125 4.703125z"/></defs><use transform="matrix(.19925 0 0 -.19925 152.081678 299.836997)" xlink:href="#CMR17-49"/></g></g><g id="xtick_3"><use id="line2d_3" x="268.251" y="279" stroke="#000" stroke-width=".8" xlink:href="#mfd76ebc2f7"/><g id="text_3"><defs><path id="CMR17-107" d="M26.09375 26.234375C26 26.4375 25.5 27.03125 25.5 27.328125c0 .203125 7.09375 6.65625 8 7.453125 5.703125 4.78125 9.296875 5.265625 11.90625 5.375v2.578125c-.609375 0-.8125 0-.90625-.09375l-4.90625-.109375c-2.796875 0-7.09375 0-9.796875.203125V40.15625c1.40625-.109375 2.40625-.890625 2.40625-2.296875 0-1.984375-2-3.875-2.109375-3.875L15 20.28125V69L3.09375 67.890625v-2.59375c5.90625 0 6.8125-.59375 6.8125-5.375v-53.0625c0-3.765625-.40625-4.265625-6.8125-4.265625V0C5.5.1875 9.90625.1875 12.40625.1875s6.890625 0 9.296875-.1875v2.59375c-6.40625 0-6.796875.390625-6.796875 4.265625v10.9375l6.890625 6.265625L31.90625 9.15625c1.1875-1.796875 2.1875-3.1875 2.1875-4.484375 0-1.78125-1.796875-2.078125-3-2.078125V0C33.5.1875 37.796875.1875 40.296875.1875c1.796875 0 5.5-.09375 7.203125-.1875v2.59375c-4.703125 0-5.796875.890625-8.796875 5.265625z"/></defs><use transform="matrix(.19925 0 0 -.19925 263.421439 299.836997)" xlink:href="#CMR17-107"/></g></g><g id="text_4"><defs><path id="CMMI12-14" d="M26 43.671875C13.203125 40.578125 4 27.3125 4 15.640625 4 4.984375 11.203125-1 19.203125-1 31-1 39 15.15625 39 28.40625c0 8.984375-4.203125 14.453125-6.703125 17.75-3.703125 4.6875-9.703125 12.359375-9.703125 17.15625C22.59375 65 23.90625 68 28.296875 68c3.109375 0 5-1.109375 8-2.796875.90625-.609375 3.203125-1.890625 4.5-1.890625 2.109375 0 3.609375 2.09375 3.609375 3.6875 0 1.890625-1.5 2.1875-5 3-4.703125 1-6.109375 1-7.8125 1-1.6875 0-11.5 0-11.5-10.1875 0-4.890625 2.5-10.5625 5.90625-17.140625zm1.09375-1.90625c3.8125-7.875 5.3125-10.859375 5.3125-17.34375C32.40625 16.640625 28.203125 1 19.296875 1c-3.890625 0-9.5 2.578125-9.5 11.859375 0 6.484375 3.703125 25.328125 17.296875 28.90625z"/></defs><use transform="matrix(.19925 0 0 -.19925 263.930182 321.549627)" xlink:href="#CMMI12-14"/></g></g><g id="matplotlib.axis_2"><g id="ytick_1"><g id="line2d_4"><defs><path id="mebf1f123a6" stroke="#000" stroke-width=".8" d="M0 0h-3.5"/></defs><use x="45.051" y="279" stroke="#000" stroke-width=".8" xlink:href="#mebf1f123a6"/></g><use id="text_5" transform="matrix(.19925 0 0 -.19925 28.91263 285.918498)" xlink:href="#CMR17-48"/></g><g id="text_6"><defs><path id="CMMI12-115" d="M22.796875 20.15625c1.703125-.296875 4.40625-.890625 5-.984375 1.296875-.40625 5.796875-2 5.796875-6.78125C33.59375 9.296875 30.796875 1 19.203125 1 17.09375 1 9.59375 1.296875 7.59375 6.984375c4-.515625 6 2.609375 6 4.8125C13.59375 13.890625 12.203125 15 10.203125 15 8 15 5.09375 13.296875 5.09375 8.796875c0-6.046875 6-9.796875 14-9.796875 15.203125 0 19.703125 11.390625 19.703125 16.59375 0 1.484375 0 4.265625-3.203125 7.453125-2.5 2.375-4.890625 2.875-10.296875 3.96875-2.703125.59375-7 1.484375-7 5.96875 0 2 1.796875 9 11.296875 9 4.203125 0 8.3125-1.53125 9.3125-4.984375-4.40625 0-4.609375-3.8125-4.609375-3.90625 0-2.109375 1.90625-2.703125 2.796875-2.703125 1.40625 0 4.203125 1.09375 4.203125 5.296875C41.296875 39.78125 37.5 44 29.703125 44 16.59375 44 13.09375 33.890625 13.09375 29.796875c0-7.546875 7.40625-9.140625 9.703125-9.640625z"/></defs><g transform="matrix(0 -.2 -.2 0 21.036997 151.109234)"><use transform="scale(.99626)" xlink:href="#CMMI12-115"/><use transform="translate(45.950048 -14.943915) scale(.69738)" xlink:href="#CMR17-49"/></g></g></g><path id="line2d_5" fill="none" stroke="#1f77b4" stroke-linecap="square" stroke-width="1.5" d="M45.050726 279l9.110204-34.136101 9.110204-29.080702 9.110204-24.837412 9.110204-21.256958 9.110204-18.221145 9.110204-15.635648 9.110204-13.424627 9.110204-11.526697 9.110205-9.891848 9.110204-8.479095 9.110204-7.254659 9.110204-6.190556 9.110204-5.263485 9.110204-4.45396 9.110204-3.745601 9.110204-3.124597 9.110204-2.579246 9.110204-2.099601 9.110204-1.677174 9.110204-1.304703 9.110205-.975948 9.110204-.685537 9.110204-.428827 9.110204-.2018 9.110204-.000963 9.110204.176723 9.110204.333912 9.110204.472922 9.110204.595787 9.110204.704296 9.110204.800019 9.110204.884342 9.110204.958492 9.110205 1.023551 9.110204 1.080479 9.110204 1.130132 9.110204 1.173265 9.110204 1.210554 9.110204 1.242603 9.110204 1.269946 9.110204 1.293068 9.110204 1.312395 9.110204 1.328313 9.110204 1.341171 9.110204 1.351276 9.110205 1.358907 9.110204 1.364318 9.110204 1.367732 9.110204 1.369354" clip-path="url(#p41c48a42da)"/><path id="patch_3" fill="none" stroke="#000" stroke-linecap="square" stroke-width=".8" d="M45.050726 279V7.2"/><path id="patch_4" fill="none" stroke="#000" stroke-linecap="square" stroke-width=".8" d="M491.450726 279V7.2"/><path id="patch_5" fill="none" stroke="#000" stroke-linecap="square" stroke-width=".8" d="M45.050726 279h446.4"/><path id="patch_6" fill="none" stroke="#000" stroke-linecap="square" stroke-width=".8" d="M45.050726 7.2h446.4"/></g></g><defs><clipPath id="p41c48a42da"><path d="M45.050726 7.2h446.4V279h-446.4z"/></clipPath></defs></svg>