<?xml version="1.0" encoding="utf-8" standalone="no"?>
<!DOCTYPE svg PUBLIC "-//W3C//DTD SVG 1.1//EN"
  "http://www.w3.org/Graphics/SVG/1.1/DTD/svg11.dtd">
<svg height="179.011353pt" version="1.1" viewBox="0 0 250.455677 179.011353" width="250.455677pt" xmlns="http://www.w3.org/2000/svg" xmlns:xlink="http://www.w3.org/1999/xlink">
 <metadata>
  <rdf:RDF xmlns:cc="http://creativecommons.org/ns#" xmlns:dc="http://purl.org/dc/elements/1.1/" xmlns:rdf="http://www.w3.org/1999/02/22-rdf-syntax-ns#">
   <cc:Work>
    <dc:type rdf:resource="http://purl.org/dc/dcmitype/StillImage"/>
    <dc:date>2021-08-21T02:13:49.309182</dc:date>
    <dc:format>image/svg+xml</dc:format>
    <dc:creator>
     <cc:Agent>
      <dc:title>Matplotlib v3.4.2, https://matplotlib.org/</dc:title>
     </cc:Agent>
    </dc:creator>
   </cc:Work>
  </rdf:RDF>
 </metadata>
 <defs>
  <style type="text/css">*{stroke-linecap:butt;stroke-linejoin:round;}</style>
 </defs>
 <g id="figure_1">
  <g id="patch_1">
   <path d="M 0 179.011353 
L 250.455677 179.011353 
L 250.455677 0 
L 0 0 
z
" style="fill:none;"/>
  </g>
  <g id="axes_1">
   <g id="patch_2">
    <path d="M 20.055677 143.1 
L 243.255677 143.1 
L 243.255677 7.2 
L 20.055677 7.2 
z
" style="fill:#ffffff;"/>
   </g>
   <g id="matplotlib.axis_1">
    <g id="xtick_1">
     <g id="line2d_1">
      <defs>
       <path d="M 0 0 
L 0 3.5 
" id="m831abc9736" style="stroke:#000000;stroke-width:0.8;"/>
      </defs>
      <g>
       <use style="stroke:#000000;stroke-width:0.8;" x="30.201131" xlink:href="#m831abc9736" y="143.1"/>
      </g>
     </g>
     <g id="text_1">
      <!-- 1 -->
      <g transform="translate(27.710464 157.018498)scale(0.1 -0.1)">
       <defs>
        <path d="M 1702 4083 
C 1702 4217 1696 4224 1606 4224 
C 1357 3927 979 3833 621 3820 
C 602 3820 570 3820 563 3808 
C 557 3795 557 3782 557 3648 
C 755 3648 1088 3686 1344 3839 
L 1344 467 
C 1344 243 1331 166 781 166 
L 589 166 
L 589 0 
C 896 6 1216 12 1523 12 
C 1830 12 2150 6 2458 0 
L 2458 166 
L 2266 166 
C 1715 166 1702 236 1702 467 
L 1702 4083 
z
" id="CMR17-31" transform="scale(0.015625)"/>
       </defs>
       <use transform="scale(0.996264)" xlink:href="#CMR17-31"/>
      </g>
     </g>
    </g>
    <g id="xtick_2">
     <g id="line2d_2">
      <g>
       <use style="stroke:#000000;stroke-width:0.8;" x="84.617708" xlink:href="#m831abc9736" y="143.1"/>
      </g>
     </g>
     <g id="text_2">
      <!-- $\bar{r}$ -->
      <g transform="translate(81.902753 157.018498)scale(0.1 -0.1)">
       <defs>
        <path d="M 2554 3520 
L 2554 3667 
L 378 3667 
L 378 3520 
L 2554 3520 
z
" id="CMR17-16" transform="scale(0.015625)"/>
        <path d="M 2490 2633 
C 2291 2598 2189 2457 2189 2316 
C 2189 2163 2310 2111 2400 2111 
C 2579 2111 2726 2265 2726 2457 
C 2726 2651 2528 2816 2208 2816 
C 1952 2816 1658 2700 1389 2335 
C 1344 2660 1088 2816 832 2816 
C 582 2816 454 2642 378 2508 
C 269 2278 173 1892 173 1860 
C 173 1834 198 1801 243 1801 
C 294 1801 301 1808 339 1957 
C 435 2342 557 2687 813 2687 
C 966 2687 1011 2604 1011 2419 
C 1011 2278 947 2028 902 1827 
L 723 1130 
C 698 1007 627 716 595 600 
C 550 432 480 128 480 96 
C 480 6 550 -64 646 -64 
C 717 -64 838 -20 877 109 
C 896 160 1133 1136 1171 1285 
C 1203 1427 1242 1562 1274 1705 
C 1299 1795 1325 1898 1344 1982 
C 1363 2040 1536 2355 1696 2495 
C 1773 2566 1939 2687 2202 2687 
C 2304 2687 2406 2674 2490 2633 
z
" id="CMMI12-72" transform="scale(0.015625)"/>
       </defs>
       <use transform="translate(5.90951 0.006461)scale(0.996264)" xlink:href="#CMR17-16"/>
       <use transform="scale(0.996264)" xlink:href="#CMMI12-72"/>
      </g>
     </g>
    </g>
    <g id="xtick_3">
     <g id="line2d_3">
      <g>
       <use style="stroke:#000000;stroke-width:0.8;" x="131.655677" xlink:href="#m831abc9736" y="143.1"/>
      </g>
     </g>
     <g id="text_3">
      <!-- 2 -->
      <g transform="translate(129.165009 157.018498)scale(0.1 -0.1)">
       <defs>
        <path d="M 2669 990 
L 2554 990 
C 2490 537 2438 460 2413 422 
C 2381 371 1920 371 1830 371 
L 602 371 
C 832 620 1280 1073 1824 1596 
C 2214 1966 2669 2400 2669 3033 
C 2669 3788 2067 4224 1395 4224 
C 691 4224 262 3603 262 3027 
C 262 2777 448 2745 525 2745 
C 589 2745 781 2783 781 3007 
C 781 3206 614 3264 525 3264 
C 486 3264 448 3257 422 3244 
C 544 3788 915 4057 1306 4057 
C 1862 4057 2227 3616 2227 3033 
C 2227 2477 1901 1998 1536 1583 
L 262 147 
L 262 0 
L 2515 0 
L 2669 990 
z
" id="CMR17-32" transform="scale(0.015625)"/>
       </defs>
       <use transform="scale(0.996264)" xlink:href="#CMR17-32"/>
      </g>
     </g>
    </g>
    <g id="text_4">
     <!-- $r$ -->
     <g transform="translate(129.408314 169.874175)scale(0.1 -0.1)">
      <use transform="scale(0.996264)" xlink:href="#CMMI12-72"/>
     </g>
    </g>
   </g>
   <g id="matplotlib.axis_2">
    <g id="text_5">
     <!-- Revenue -->
     <g transform="translate(14.118498 93.345675)rotate(-90)scale(0.1 -0.1)">
      <defs>
       <path d="M 2509 2156 
C 3117 2278 3629 2689 3629 3203 
C 3629 3806 2950 4352 2054 4352 
L 333 4352 
L 333 4185 
C 774 4185 845 4185 845 3896 
L 845 428 
C 845 140 774 140 333 140 
L 333 -26 
C 518 -13 851 -13 1050 -13 
C 1248 -13 1581 -13 1766 -26 
L 1766 140 
C 1325 140 1254 140 1254 428 
L 1254 2112 
L 2003 2112 
C 2368 2112 2573 1964 2662 1881 
C 2918 1632 2918 1459 2918 1024 
C 2918 595 2918 377 3110 160 
C 3354 -103 3680 -128 3821 -128 
C 4294 -128 4365 403 4365 512 
C 4365 550 4365 595 4307 595 
C 4256 595 4250 556 4250 531 
C 4218 115 4032 -26 3834 -26 
C 3482 -26 3443 377 3405 768 
C 3386 902 3373 998 3360 1139 
C 3322 1459 3270 1926 2509 2156 
z
M 1984 2214 
L 1254 2214 
L 1254 3935 
C 1254 4153 1267 4185 1523 4185 
L 1990 4185 
C 2522 4185 3142 3999 3142 3203 
C 3142 2374 2464 2214 1984 2214 
z
" id="CMR17-52" transform="scale(0.015625)"/>
       <path d="M 2438 1503 
C 2464 1529 2464 1542 2464 1606 
C 2464 2251 2118 2816 1389 2816 
C 710 2816 173 2175 173 1394 
C 173 554 781 -64 1459 -64 
C 2176 -64 2458 619 2458 755 
C 2458 800 2419 800 2406 800 
C 2362 800 2355 787 2330 709 
C 2189 270 1837 51 1504 51 
C 1229 51 954 206 781 490 
C 582 819 582 1200 582 1503 
L 2438 1503 
z
M 589 1600 
C 634 2511 1126 2713 1382 2713 
C 1818 2713 2112 2308 2118 1600 
L 589 1600 
z
" id="CMR17-65" transform="scale(0.015625)"/>
       <path d="M 2502 2173 
C 2560 2315 2662 2572 3034 2585 
L 3034 2752 
C 2912 2745 2752 2739 2630 2739 
C 2496 2739 2285 2739 2157 2752 
L 2157 2585 
C 2317 2572 2406 2495 2406 2328 
C 2406 2270 2406 2257 2368 2167 
L 1664 379 
L 902 2308 
C 864 2392 864 2405 864 2431 
C 864 2585 1075 2585 1171 2585 
L 1171 2752 
C 1018 2739 736 2739 576 2739 
C 403 2739 205 2739 64 2752 
L 64 2585 
C 307 2585 442 2585 518 2386 
L 1446 44 
C 1485 -52 1491 -64 1549 -64 
C 1606 -64 1613 -52 1651 44 
L 2502 2173 
z
" id="CMR17-76" transform="scale(0.015625)"/>
       <path d="M 2656 1954 
C 2656 2282 2592 2816 1837 2816 
C 1331 2816 1069 2424 973 2166 
L 966 2166 
L 966 2816 
L 211 2745 
L 211 2578 
C 589 2578 646 2540 646 2231 
L 646 443 
C 646 198 621 166 211 166 
L 211 0 
C 365 12 646 12 813 12 
C 979 12 1267 12 1421 0 
L 1421 166 
C 1011 166 986 192 986 443 
L 986 1678 
C 986 2269 1344 2713 1792 2713 
C 2266 2713 2317 2289 2317 1980 
L 2317 443 
C 2317 198 2291 166 1882 166 
L 1882 0 
C 2035 12 2317 12 2483 12 
C 2650 12 2938 12 3091 0 
L 3091 166 
C 2682 166 2656 192 2656 443 
L 2656 1954 
z
" id="CMR17-6e" transform="scale(0.015625)"/>
       <path d="M 1882 2745 
L 1882 2579 
C 2259 2579 2317 2540 2317 2229 
L 2317 1053 
C 2317 510 2029 38 1555 38 
C 1030 38 986 355 986 691 
L 986 2816 
L 211 2745 
L 211 2579 
C 467 2579 640 2579 646 2320 
L 646 1079 
C 646 646 646 368 813 187 
C 896 103 1056 -64 1517 -64 
C 2061 -64 2272 400 2323 536 
L 2330 536 
L 2330 -64 
L 3091 -13 
L 3091 154 
C 2714 154 2656 193 2656 503 
L 2656 2816 
L 1882 2745 
z
" id="CMR17-75" transform="scale(0.015625)"/>
      </defs>
      <use transform="scale(0.996264)" xlink:href="#CMR17-52"/>
      <use transform="translate(67.791102 0)scale(0.996264)" xlink:href="#CMR17-65"/>
      <use transform="translate(108.276762 0)scale(0.996264)" xlink:href="#CMR17-76"/>
      <use transform="translate(153.967224 0)scale(0.996264)" xlink:href="#CMR17-65"/>
      <use transform="translate(194.452885 0)scale(0.996264)" xlink:href="#CMR17-6e"/>
      <use transform="translate(242.745801 0)scale(0.996264)" xlink:href="#CMR17-75"/>
      <use transform="translate(293.64117 0)scale(0.996264)" xlink:href="#CMR17-65"/>
     </g>
    </g>
   </g>
   <g id="LineCollection_1">
    <path clip-path="url(#p8316a2548b)" d="M 84.617708 136.922727 
L 84.617708 13.377273 
" style="fill:none;stroke:#808080;stroke-dasharray:5.55,2.4;stroke-dashoffset:0;stroke-width:1.5;"/>
    <path clip-path="url(#p8316a2548b)" d="M 131.655677 136.922727 
L 131.655677 13.377273 
" style="fill:none;stroke:#808080;stroke-dasharray:5.55,2.4;stroke-dashoffset:0;stroke-width:1.5;"/>
   </g>
   <g id="line2d_4">
    <path clip-path="url(#p8316a2548b)" d="M 30.201131 136.922727 
L 35.482049 117.287471 
L 40.762966 98.516386 
L 45.840771 81.297587 
L 50.715464 65.544829 
L 55.387044 51.171029 
L 60.058625 37.510332 
L 64.527094 25.114631 
L 68.995562 13.377273 
L 69.198674 13.460034 
L 71.432908 19.983516 
L 73.667143 25.877025 
L 76.104489 31.66472 
L 78.541836 36.854209 
L 80.979182 41.508914 
L 83.416528 45.683823 
L 85.853875 49.42686 
L 88.291221 52.779985 
L 90.728568 55.780102 
L 93.369026 58.669568 
L 96.009485 61.21947 
L 98.649944 63.46201 
L 101.290402 65.425669 
L 104.133973 67.257429 
L 106.977544 68.823031 
L 109.821115 70.147282 
L 112.867798 71.323295 
L 116.117593 72.327274 
L 119.367388 73.097995 
L 122.820296 73.686803 
L 126.476316 74.078142 
L 130.335447 74.259546 
L 137.444374 74.271639 
L 233.110222 74.271639 
L 233.110222 74.271639 
" style="fill:none;stroke:#1f77b4;stroke-linecap:square;stroke-width:1.5;"/>
   </g>
   <g id="patch_3">
    <path d="M 20.055677 143.1 
L 20.055677 7.2 
" style="fill:none;stroke:#000000;stroke-linecap:square;stroke-linejoin:miter;stroke-width:0.8;"/>
   </g>
   <g id="patch_4">
    <path d="M 243.255677 143.1 
L 243.255677 7.2 
" style="fill:none;stroke:#000000;stroke-linecap:square;stroke-linejoin:miter;stroke-width:0.8;"/>
   </g>
   <g id="patch_5">
    <path d="M 20.055677 143.1 
L 243.255677 143.1 
" style="fill:none;stroke:#000000;stroke-linecap:square;stroke-linejoin:miter;stroke-width:0.8;"/>
   </g>
   <g id="patch_6">
    <path d="M 20.055677 7.2 
L 243.255677 7.2 
" style="fill:none;stroke:#000000;stroke-linecap:square;stroke-linejoin:miter;stroke-width:0.8;"/>
   </g>
  </g>
 </g>
 <defs>
  <clipPath id="p8316a2548b">
   <rect height="135.9" width="223.2" x="20.055677" y="7.2"/>
  </clipPath>
 </defs>
</svg>
