<svg xmlns="http://www.w3.org/2000/svg" xmlns:xlink="http://www.w3.org/1999/xlink" width="354.713" height="244.77" version="1.1" viewBox="0 0 266.035 183.578"><metadata><rdf:RDF xmlns:cc="http://creativecommons.org/ns#" xmlns:dc="http://purl.org/dc/elements/1.1/" xmlns:rdf="http://www.w3.org/1999/02/22-rdf-syntax-ns#"><cc:Work><dc:type rdf:resource="http://purl.org/dc/dcmitype/StillImage"/><dc:date>2021-08-21T02:13:06.574866</dc:date><dc:format>image/svg+xml</dc:format><dc:creator><cc:Agent><dc:title>Matplotlib v3.4.2, https://matplotlib.org/</dc:title></cc:Agent></dc:creator></cc:Work></rdf:RDF></metadata><defs><style type="text/css">*{stroke-linecap:butt;stroke-linejoin:round}</style></defs><g id="figure_1"><g id="patch_1"><path d="M 0 183.577566 L 266.034643 183.577566 L 266.034643 0 L 0 0 z" style="fill:none"/></g><g id="axes_1"><g id="patch_2"><path d="M 33.143975 146.559249 L 256.343975 146.559249 L 256.343975 10.659249 L 33.143975 10.659249 z" style="fill:#fff"/></g><g id="PolyCollection_1"><path d="M 37.607975 146.559249 L 37.607975 77.345606 L 42.071975 76.186011 L 46.535975 75.08569 L 50.999975 74.024926 L 55.463975 72.992018 L 59.927975 71.979106 L 64.391975 70.980501 L 68.855975 69.991851 L 73.319975 69.009687 L 77.783975 68.031153 L 82.247975 67.053822 L 86.711975 66.075585 L 91.175975 65.094564 L 95.639975 64.109057 L 100.103975 63.117487 L 104.567975 62.118376 L 109.031975 61.110311 L 113.495975 60.091926 L 117.959975 59.061884 L 122.423975 58.018858 L 126.887975 56.961522 L 131.351975 55.888535 L 135.815975 54.798531 L 140.279975 53.690109 L 144.743975 52.561816 L 149.207975 51.412145 L 153.671975 50.239518 L 158.135975 49.042271 L 162.599975 47.81865 L 167.063975 46.566789 L 171.527975 45.284697 L 175.991975 43.970243 L 180.455975 42.621134 L 184.919975 41.234894 L 189.383975 39.808841 L 193.847975 38.340055 L 198.311975 36.825348 L 202.775975 35.261228 L 207.239975 33.643847 L 211.703975 31.968958 L 216.167975 30.231844 L 220.631975 28.427249 L 225.095975 26.549289 L 229.559975 24.59134 L 234.023975 22.545911 L 238.487975 20.404479 L 242.951975 18.157286 L 247.415975 15.793088 L 251.879975 13.298834 L 251.879975 146.559249 L 251.879975 146.559249 L 247.415975 146.559249 L 242.951975 146.559249 L 238.487975 146.559249 L 234.023975 146.559249 L 229.559975 146.559249 L 225.095975 146.559249 L 220.631975 146.559249 L 216.167975 146.559249 L 211.703975 146.559249 L 207.239975 146.559249 L 202.775975 146.559249 L 198.311975 146.559249 L 193.847975 146.559249 L 189.383975 146.559249 L 184.919975 146.559249 L 180.455975 146.559249 L 175.991975 146.559249 L 171.527975 146.559249 L 167.063975 146.559249 L 162.599975 146.559249 L 158.135975 146.559249 L 153.671975 146.559249 L 149.207975 146.559249 L 144.743975 146.559249 L 140.279975 146.559249 L 135.815975 146.559249 L 131.351975 146.559249 L 126.887975 146.559249 L 122.423975 146.559249 L 117.959975 146.559249 L 113.495975 146.559249 L 109.031975 146.559249 L 104.567975 146.559249 L 100.103975 146.559249 L 95.639975 146.559249 L 91.175975 146.559249 L 86.711975 146.559249 L 82.247975 146.559249 L 77.783975 146.559249 L 73.319975 146.559249 L 68.855975 146.559249 L 64.391975 146.559249 L 59.927975 146.559249 L 55.463975 146.559249 L 50.999975 146.559249 L 46.535975 146.559249 L 42.071975 146.559249 L 37.607975 146.559249 z" clip-path="url(#p58f135d960)" style="fill:#1f77b4;fill-opacity:.2"/></g><g id="matplotlib.axis_1"><g id="xtick_1"><g id="line2d_1"><defs><path id="mb22767610b" d="M 0 0 L 0 3.5" style="stroke:#000;stroke-width:.8"/></defs><g><use style="stroke:#000;stroke-width:.8" x="33.144" y="146.559" xlink:href="#mb22767610b"/></g></g><g id="text_1"><g transform="translate(30.653308 160.477748)scale(0.1 -0.1)"><defs><path id="CMR17-30" d="M 2688 2038 C 2688 2430 2682 3099 2413 3613 C 2176 4063 1798 4224 1466 4224 C 1158 4224 768 4082 525 3620 C 269 3137 243 2539 243 2038 C 243 1671 250 1112 448 623 C 723 -39 1216 -128 1466 -128 C 1760 -128 2208 -7 2470 604 C 2662 1048 2688 1568 2688 2038 z M 1466 -26 C 1056 -26 813 328 723 816 C 653 1196 653 1749 653 2109 C 653 2604 653 3015 736 3407 C 858 3954 1216 4121 1466 4121 C 1728 4121 2067 3947 2189 3420 C 2272 3054 2278 2623 2278 2109 C 2278 1691 2278 1176 2202 797 C 2067 96 1690 -26 1466 -26 z" transform="scale(0.015625)"/></defs><use transform="scale(0.996264)" xlink:href="#CMR17-30"/></g></g></g><g id="xtick_2"><g id="line2d_2"><g><use style="stroke:#000;stroke-width:.8" x="88.944" y="146.559" xlink:href="#mb22767610b"/></g></g><g id="text_2"><g transform="translate(80.088268 160.477748)scale(0.1 -0.1)"><defs><path id="CMR17-2e" d="M 1062 262 C 1062 422 934 524 800 524 C 672 524 538 422 538 262 C 538 102 666 0 800 0 C 928 0 1062 102 1062 262 z" transform="scale(0.015625)"/><path id="CMR17-32" d="M 2669 990 L 2554 990 C 2490 537 2438 460 2413 422 C 2381 371 1920 371 1830 371 L 602 371 C 832 620 1280 1073 1824 1596 C 2214 1966 2669 2400 2669 3033 C 2669 3788 2067 4224 1395 4224 C 691 4224 262 3603 262 3027 C 262 2777 448 2745 525 2745 C 589 2745 781 2783 781 3007 C 781 3206 614 3264 525 3264 C 486 3264 448 3257 422 3244 C 544 3788 915 4057 1306 4057 C 1862 4057 2227 3616 2227 3033 C 2227 2477 1901 1998 1536 1583 L 262 147 L 262 0 L 2515 0 L 2669 990 z" transform="scale(0.015625)"/><path id="CMR17-35" d="M 730 3750 C 794 3724 1056 3641 1325 3641 C 1920 3641 2246 3961 2432 4140 C 2432 4191 2432 4224 2394 4224 C 2387 4224 2374 4224 2323 4198 C 2099 4102 1837 4032 1517 4032 C 1325 4032 1037 4055 723 4191 C 653 4224 640 4224 634 4224 C 602 4224 595 4217 595 4090 L 595 2231 C 595 2113 595 2080 659 2080 C 691 2080 704 2093 736 2139 C 941 2435 1222 2560 1542 2560 C 1766 2560 2246 2415 2246 1293 C 2246 1087 2246 716 2054 422 C 1894 159 1645 25 1370 25 C 947 25 518 319 403 812 C 429 806 480 793 506 793 C 589 793 749 838 749 1036 C 749 1209 627 1280 506 1280 C 358 1280 262 1190 262 1011 C 262 454 704 -128 1382 -128 C 2042 -128 2669 441 2669 1267 C 2669 2054 2170 2662 1549 2662 C 1222 2662 947 2540 730 2304 L 730 3750 z" transform="scale(0.015625)"/></defs><use transform="scale(0.996264)" xlink:href="#CMR17-30"/><use transform="translate(45.690477 0)scale(0.996264)" xlink:href="#CMR17-2e"/><use transform="translate(70.561536 0)scale(0.996264)" xlink:href="#CMR17-32"/><use transform="translate(116.252013 0)scale(0.996264)" xlink:href="#CMR17-35"/></g></g></g><g id="xtick_3"><g id="line2d_3"><g><use style="stroke:#000;stroke-width:.8" x="144.744" y="146.559" xlink:href="#mb22767610b"/></g></g><g id="text_3"><g transform="translate(138.378936 160.477748)scale(0.1 -0.1)"><use transform="scale(0.996264)" xlink:href="#CMR17-30"/><use transform="translate(45.690477 0)scale(0.996264)" xlink:href="#CMR17-2e"/><use transform="translate(70.561536 0)scale(0.996264)" xlink:href="#CMR17-35"/></g></g></g><g id="xtick_4"><g id="line2d_4"><g><use style="stroke:#000;stroke-width:.8" x="200.544" y="146.559" xlink:href="#mb22767610b"/></g></g><g id="text_4"><g transform="translate(191.688268 160.477748)scale(0.1 -0.1)"><defs><path id="CMR17-37" d="M 2886 3955 L 2886 4096 L 1382 4096 C 634 4096 621 4166 595 4288 L 480 4288 L 294 3104 L 410 3104 C 429 3226 474 3552 550 3673 C 589 3724 1062 3724 1171 3724 L 2579 3724 L 1869 2670 C 1395 1961 1069 1003 1069 166 C 1069 89 1069 -128 1299 -128 C 1530 -128 1530 89 1530 172 L 1530 466 C 1530 1514 1709 2204 2003 2644 L 2886 3955 z" transform="scale(0.015625)"/></defs><use transform="scale(0.996264)" xlink:href="#CMR17-30"/><use transform="translate(45.690477 0)scale(0.996264)" xlink:href="#CMR17-2e"/><use transform="translate(70.561536 0)scale(0.996264)" xlink:href="#CMR17-37"/><use transform="translate(116.252013 0)scale(0.996264)" xlink:href="#CMR17-35"/></g></g></g><g id="xtick_5"><g id="line2d_5"><g><use style="stroke:#000;stroke-width:.8" x="256.344" y="146.559" xlink:href="#mb22767610b"/></g></g><g id="text_5"><g transform="translate(253.853308 160.477748)scale(0.1 -0.1)"><defs><path id="CMR17-31" d="M 1702 4083 C 1702 4217 1696 4224 1606 4224 C 1357 3927 979 3833 621 3820 C 602 3820 570 3820 563 3808 C 557 3795 557 3782 557 3648 C 755 3648 1088 3686 1344 3839 L 1344 467 C 1344 243 1331 166 781 166 L 589 166 L 589 0 C 896 6 1216 12 1523 12 C 1830 12 2150 6 2458 0 L 2458 166 L 2266 166 C 1715 166 1702 236 1702 467 L 1702 4083 z" transform="scale(0.015625)"/></defs><use transform="scale(0.996264)" xlink:href="#CMR17-31"/></g></g></g><g id="text_6"><g transform="translate(137.257569 173.886906)scale(0.1 -0.1)"><defs><path id="CMMI12-e" d="M 1664 2795 C 845 2597 256 1748 256 1001 C 256 319 717 -64 1229 -64 C 1984 -64 2496 970 2496 1818 C 2496 2393 2227 2743 2067 2954 C 1830 3254 1446 3745 1446 4052 C 1446 4160 1530 4352 1811 4352 C 2010 4352 2131 4281 2323 4173 C 2381 4134 2528 4052 2611 4052 C 2746 4052 2842 4186 2842 4288 C 2842 4409 2746 4428 2522 4480 C 2221 4544 2131 4544 2022 4544 C 1914 4544 1286 4544 1286 3892 C 1286 3579 1446 3216 1664 2795 z M 1734 2673 C 1978 2169 2074 1978 2074 1563 C 2074 1065 1805 64 1235 64 C 986 64 627 229 627 823 C 627 1238 864 2444 1734 2673 z" transform="scale(0.015625)"/><path id="CMMI12-3d" d="M 2746 4563 C 2746 4569 2784 4665 2784 4678 C 2784 4755 2720 4800 2669 4800 C 2637 4800 2579 4800 2528 4659 L 384 -1364 C 384 -1370 346 -1466 346 -1479 C 346 -1556 410 -1600 461 -1600 C 499 -1600 557 -1594 602 -1460 L 2746 4563 z" transform="scale(0.015625)"/><path id="CMMI12-6b" d="M 1798 4255 C 1805 4281 1818 4319 1818 4351 C 1818 4416 1754 4416 1741 4416 C 1734 4416 1504 4396 1389 4383 C 1280 4377 1184 4364 1069 4358 C 915 4345 870 4339 870 4223 C 870 4159 934 4159 998 4159 C 1325 4159 1325 4103 1325 4040 C 1325 4014 1325 4002 1293 3888 L 378 250 C 352 153 352 141 352 102 C 352 -39 461 -64 525 -64 C 704 -64 742 76 794 275 L 1094 1476 C 1555 1425 1830 1232 1830 924 C 1830 885 1830 860 1811 763 C 1786 667 1786 590 1786 558 C 1786 185 2029 -64 2355 -64 C 2650 -64 2803 205 2854 295 C 2989 532 3072 892 3072 917 C 3072 949 3046 975 3008 975 C 2950 975 2944 949 2918 847 C 2829 513 2694 64 2368 64 C 2240 64 2157 128 2157 372 C 2157 494 2182 635 2208 731 C 2234 847 2234 853 2234 930 C 2234 1309 1894 1521 1306 1598 C 1536 1739 1766 1989 1856 2086 C 2221 2495 2470 2687 2765 2687 C 2912 2687 2950 2655 2995 2624 C 2758 2598 2669 2431 2669 2303 C 2669 2150 2790 2099 2880 2099 C 3053 2099 3206 2246 3206 2451 C 3206 2634 3059 2816 2771 2816 C 2419 2816 2131 2579 1677 2067 C 1613 1989 1376 1746 1139 1656 L 1798 4255 z" transform="scale(0.015625)"/></defs><use transform="scale(0.996264)" xlink:href="#CMMI12-e"/><use transform="translate(46.941386 0)scale(0.996264)" xlink:href="#CMMI12-3d"/><use transform="translate(95.716305 0)scale(0.996264)" xlink:href="#CMMI12-6b"/></g></g></g><g id="matplotlib.axis_2"><g id="ytick_1"><g id="line2d_6"><defs><path id="mcc5ac68fbd" d="M 0 0 L -3.5 0" style="stroke:#000;stroke-width:.8"/></defs><g><use style="stroke:#000;stroke-width:.8" x="33.144" y="146.559" xlink:href="#mcc5ac68fbd"/></g></g><g id="text_7"><g transform="translate(21.16264 150.018498)scale(0.1 -0.1)"><use transform="scale(0.996264)" xlink:href="#CMR17-30"/></g></g></g><g id="ytick_2"><g id="line2d_7"><g><use style="stroke:#000;stroke-width:.8" x="33.144" y="78.609" xlink:href="#mcc5ac68fbd"/></g></g><g id="text_8"><g transform="translate(21.16264 82.068498)scale(0.1 -0.1)"><use transform="scale(0.996264)" xlink:href="#CMR17-31"/></g></g></g><g id="ytick_3"><g id="line2d_8"><g><use style="stroke:#000;stroke-width:.8" x="33.144" y="10.659" xlink:href="#mcc5ac68fbd"/></g></g><g id="text_9"><g transform="translate(21.16264 14.118498)scale(0.1 -0.1)"><use transform="scale(0.996264)" xlink:href="#CMR17-32"/></g></g></g><g id="text_10"><g transform="translate(14.67198 92.512579)rotate(-90)scale(0.1 -0.1)"><defs><path id="CMR17-16" d="M 2554 3520 L 2554 3667 L 378 3667 L 378 3520 L 2554 3520 z" transform="scale(0.015625)"/><path id="CMMI12-72" d="M 2490 2633 C 2291 2598 2189 2457 2189 2316 C 2189 2163 2310 2111 2400 2111 C 2579 2111 2726 2265 2726 2457 C 2726 2651 2528 2816 2208 2816 C 1952 2816 1658 2700 1389 2335 C 1344 2660 1088 2816 832 2816 C 582 2816 454 2642 378 2508 C 269 2278 173 1892 173 1860 C 173 1834 198 1801 243 1801 C 294 1801 301 1808 339 1957 C 435 2342 557 2687 813 2687 C 966 2687 1011 2604 1011 2419 C 1011 2278 947 2028 902 1827 L 723 1130 C 698 1007 627 716 595 600 C 550 432 480 128 480 96 C 480 6 550 -64 646 -64 C 717 -64 838 -20 877 109 C 896 160 1133 1136 1171 1285 C 1203 1427 1242 1562 1274 1705 C 1299 1795 1325 1898 1344 1982 C 1363 2040 1536 2355 1696 2495 C 1773 2566 1939 2687 2202 2687 C 2304 2687 2406 2674 2490 2633 z" transform="scale(0.015625)"/><path id="CMR17-28" d="M 1958 -1562 C 1958 -1556 1958 -1543 1939 -1524 C 1645 -1223 858 -403 858 1596 C 858 3595 1632 4408 1946 4729 C 1946 4735 1958 4748 1958 4767 C 1958 4787 1939 4800 1914 4800 C 1843 4800 1299 4325 986 3620 C 666 2909 576 2218 576 1603 C 576 1141 621 360 1005 -467 C 1312 -1133 1837 -1600 1914 -1600 C 1946 -1600 1958 -1588 1958 -1562 z" transform="scale(0.015625)"/><path id="CMR17-29" d="M 1683 1596 C 1683 2057 1638 2839 1254 3665 C 947 4332 422 4800 346 4800 C 326 4800 301 4793 301 4761 C 301 4748 307 4742 314 4729 C 621 4408 1402 3595 1402 1603 C 1402 -396 627 -1210 314 -1530 C 307 -1543 301 -1549 301 -1562 C 301 -1594 326 -1600 346 -1600 C 416 -1600 960 -1127 1274 -422 C 1594 289 1683 981 1683 1596 z" transform="scale(0.015625)"/></defs><use transform="translate(5.90951 0.006461)scale(0.996264)" xlink:href="#CMR17-16"/><use transform="scale(0.996264)" xlink:href="#CMMI12-72"/><use transform="translate(46.670612 0)scale(0.996264)" xlink:href="#CMR17-28"/><use transform="translate(81.95138 0)scale(0.996264)" xlink:href="#CMMI12-e"/><use transform="translate(128.892766 0)scale(0.996264)" xlink:href="#CMMI12-3d"/><use transform="translate(177.667685 0)scale(0.996264)" xlink:href="#CMMI12-6b"/><use transform="translate(231.746885 0)scale(0.996264)" xlink:href="#CMR17-29"/></g></g></g><g id="line2d_9"><path d="M 37.607975 77.345606 L 42.071975 76.186011 L 46.535975 75.08569 L 50.999975 74.024926 L 55.463975 72.992018 L 59.927975 71.979106 L 64.391975 70.980501 L 68.855975 69.991851 L 73.319975 69.009687 L 77.783975 68.031153 L 82.247975 67.053822 L 86.711975 66.075585 L 91.175975 65.094564 L 95.639975 64.109057 L 100.103975 63.117487 L 104.567975 62.118376 L 109.031975 61.110311 L 113.495975 60.091926 L 117.959975 59.061884 L 122.423975 58.018858 L 126.887975 56.961522 L 131.351975 55.888535 L 135.815975 54.798531 L 140.279975 53.690109 L 144.743975 52.561816 L 149.207975 51.412145 L 153.671975 50.239518 L 158.135975 49.042271 L 162.599975 47.81865 L 167.063975 46.566789 L 171.527975 45.284697 L 175.991975 43.970243 L 180.455975 42.621134 L 184.919975 41.234894 L 189.383975 39.808841 L 193.847975 38.340055 L 198.311975 36.825348 L 202.775975 35.261228 L 207.239975 33.643847 L 211.703975 31.968958 L 216.167975 30.231844 L 220.631975 28.427249 L 225.095975 26.549289 L 229.559975 24.59134 L 234.023975 22.545911 L 238.487975 20.404479 L 242.951975 18.157286 L 247.415975 15.793088 L 251.879975 13.298834" clip-path="url(#p58f135d960)" style="fill:none;stroke:#1f77b4;stroke-linecap:square;stroke-width:1.5"/></g><g id="patch_3"><path d="M 33.143975 146.559249 L 33.143975 10.659249" style="fill:none;stroke:#000;stroke-linecap:square;stroke-linejoin:miter;stroke-width:.8"/></g><g id="patch_4"><path d="M 256.343975 146.559249 L 256.343975 10.659249" style="fill:none;stroke:#000;stroke-linecap:square;stroke-linejoin:miter;stroke-width:.8"/></g><g id="patch_5"><path d="M 33.143975 146.559249 L 256.343975 146.559249" style="fill:none;stroke:#000;stroke-linecap:square;stroke-linejoin:miter;stroke-width:.8"/></g><g id="patch_6"><path d="M 33.143975 10.659249 L 256.343975 10.659249" style="fill:none;stroke:#000;stroke-linecap:square;stroke-linejoin:miter;stroke-width:.8"/></g></g></g><defs><clipPath id="p58f135d960"><rect width="223.2" height="135.9" x="33.144" y="10.659"/></clipPath></defs></svg>