<svg xmlns="http://www.w3.org/2000/svg" xmlns:xlink="http://www.w3.org/1999/xlink" viewBox="0 0 505.432 341.756"><g id="figure_1"><path id="patch_1" fill="#fff" d="M0 341.756409h505.432423V0H0z"/><g id="axes_1"><path id="patch_2" fill="#fff" d="M47.263376 285.918498h446.4v-271.8h-446.4z"/><path id="PolyCollection_1" fill="#1f77b4" fill-opacity=".2" d="M56.191376 285.918498V147.491213l8.928-2.31919 8.928-2.200642 8.928-2.121528 8.928-2.065818 8.928-2.025822 8.928-1.997211 8.928-1.977301 8.928-1.964326 8.928-1.957069 8.928-1.954661 8.928-1.956475 8.928-1.962041 8.928-1.971015 8.928-1.983139 8.928-1.998223 8.928-2.01613 8.928-2.03677 8.928-2.060085 8.928-2.086051 8.928-2.114672 8.928-2.145974 8.928-2.180007 8.928-2.216846 8.928-2.256585 8.928-2.299341 8.928-2.345256 8.928-2.394492 8.928-2.447242 8.928-2.503723 8.928-2.564183 8.928-2.628908 8.928-2.698218 8.928-2.77248 8.928-2.852107 8.928-2.937573 8.928-3.029412 8.928-3.128241 8.928-3.234761 8.928-3.349779 8.928-3.474229 8.928-3.609189 8.928-3.755921 8.928-3.915897 8.928-4.090857 8.928-4.282865 8.928-4.494387 8.928-4.728395 8.928-4.988508v266.52083H56.191376z" clip-path="url(#pfc8e05a195)"/><g id="matplotlib.axis_1"><g id="xtick_1"><g id="line2d_1"><defs><path id="mee8d536064" stroke="#000" stroke-width=".8" d="M0 0v3.5"/></defs><use x="47.263" y="285.918" stroke="#000" stroke-width=".8" xlink:href="#mee8d536064"/></g><g id="text_1"><defs><path id="CMR17-48" d="M42 31.84375c0 6.125-.09375 16.578125-4.296875 24.609375C34 63.484375 28.09375 66 22.90625 66 18.09375 66 12 63.78125 8.203125 56.5625c-4-7.546875-4.40625-16.890625-4.40625-24.71875C3.796875 26.109375 3.90625 17.375 7 9.734375 11.296875-.609375 19-2 22.90625-2 27.5-2 34.5-.109375 38.59375 9.4375 41.59375 16.375 42 24.5 42 31.84375zm-19.09375-32.25C16.5-.40625 12.703125 5.125 11.296875 12.75c-1.09375 5.9375-1.09375 14.578125-1.09375 20.203125 0 7.734375 0 14.15625 1.296875 20.28125 1.90625 8.546875 7.5 11.15625 11.40625 11.15625 4.09375 0 9.390625-2.71875 11.296875-10.953125C35.5 47.71875 35.59375 40.984375 35.59375 32.953125c0-6.53125 0-14.578125-1.1875-20.5-2.109375-10.953125-8-12.859375-11.5-12.859375z"/></defs><use transform="matrix(.19925 0 0 -.19925 42.694328 306.755495)" xlink:href="#CMR17-48"/></g></g><g id="xtick_2"><use id="line2d_2" x="158.863" y="285.918" stroke="#000" stroke-width=".8" xlink:href="#mee8d536064"/><g id="text_2"><defs><path id="CMR17-46" d="M16.59375 4.09375c0 2.5-2 4.09375-4.09375 4.09375-2 0-4.09375-1.59375-4.09375-4.09375S10.40625 0 12.5 0c2 0 4.09375 1.59375 4.09375 4.09375z"/><path id="CMR17-50" d="M41.703125 15.46875H39.90625c-1-7.078125-1.8125-8.28125-2.203125-8.875-.5-.796875-7.703125-.796875-9.109375-.796875H9.40625C13 9.6875 20 16.765625 28.5 24.9375 34.59375 30.71875 41.703125 37.5 41.703125 47.390625 41.703125 59.1875 32.296875 66 21.796875 66c-11 0-17.703125-9.703125-17.703125-18.703125 0-3.90625 2.90625-4.40625 4.109375-4.40625 1 0 4 .59375 4 4.09375 0 3.109375-2.609375 4.015625-4 4.015625C7.59375 51 7 50.890625 6.59375 50.6875c1.90625 8.5 7.703125 12.703125 13.8125 12.703125 8.6875 0 14.390625-6.890625 14.390625-16 0-8.6875-5.09375-16.171875-10.796875-22.65625L4.09375 2.296875V0h35.203125z"/><path id="CMR17-53" d="M11.40625 58.59375c1-.40625 5.09375-1.703125 9.296875-1.703125 9.296875 0 14.390625 5 17.296875 7.796875C38 65.484375 38 66 37.40625 66c-.109375 0-.3125 0-1.109375-.40625-3.5-1.5-7.59375-2.59375-12.59375-2.59375-3 0-7.5.359375-12.40625 2.484375C10.203125 66 10 66 9.90625 66c-.5 0-.609375-.109375-.609375-2.09375V34.859375c0-1.84375 0-2.359375 1-2.359375.5 0 .703125.203125 1.203125.921875C14.703125 38.046875 19.09375 40 24.09375 40c3.5 0 11-2.265625 11-19.796875 0-3.21875 0-9.015625-3-13.609375-2.5-4.109375-6.390625-6.203125-10.6875-6.203125-6.609375 0-13.3125 4.59375-15.109375 12.296875.40625-.09375 1.203125-.296875 1.609375-.296875 1.296875 0 3.796875.703125 3.796875 3.796875 0 2.703125-1.90625 3.8125-3.796875 3.8125-2.3125 0-3.8125-1.40625-3.8125-4.203125C4.09375 7.09375 11-2 21.59375-2c10.3125 0 20.109375 8.890625 20.109375 21.796875 0 12.296875-7.796875 21.796875-17.5 21.796875-5.109375 0-9.40625-1.90625-12.796875-5.59375z"/></defs><g transform="matrix(.2 0 0 -.2 142.66913 306.755495)"><use transform="scale(.99626)" xlink:href="#CMR17-48"/><use transform="matrix(.99626 0 0 .99626 45.690477 0)" xlink:href="#CMR17-46"/><use transform="matrix(.99626 0 0 .99626 70.561536 0)" xlink:href="#CMR17-50"/><use transform="matrix(.99626 0 0 .99626 116.252013 0)" xlink:href="#CMR17-53"/></g></g></g><g id="xtick_3"><use id="line2d_3" x="270.463" y="285.918" stroke="#000" stroke-width=".8" xlink:href="#mee8d536064"/><g id="text_3" transform="matrix(.2 0 0 -.2 258.838177 306.755495)"><use transform="scale(.99626)" xlink:href="#CMR17-48"/><use transform="matrix(.99626 0 0 .99626 45.690477 0)" xlink:href="#CMR17-46"/><use transform="matrix(.99626 0 0 .99626 70.561536 0)" xlink:href="#CMR17-53"/></g></g><g id="xtick_4"><use id="line2d_4" x="382.063" y="285.918" stroke="#000" stroke-width=".8" xlink:href="#mee8d536064"/><g id="text_4"><defs><path id="CMR17-55" d="M45.09375 61.796875V64h-23.5c-11.6875 0-11.890625 1.09375-12.296875 3H7.5L4.59375 48.5h1.8125c.296875 1.90625 1 7 2.1875 8.890625.609375.796875 8 .796875 9.703125.796875h22l-11.09375-16.46875c-7.40625-11.078125-12.5-26.046875-12.5-39.125 0-1.203125 0-4.59375 3.59375-4.59375 3.609375 0 3.609375 3.390625 3.609375 4.6875v4.59375c0 16.375 2.796875 27.15625 7.390625 34.03125z"/></defs><g transform="matrix(.2 0 0 -.2 365.86913 306.755495)"><use transform="scale(.99626)" xlink:href="#CMR17-48"/><use transform="matrix(.99626 0 0 .99626 45.690477 0)" xlink:href="#CMR17-46"/><use transform="matrix(.99626 0 0 .99626 70.561536 0)" xlink:href="#CMR17-55"/><use transform="matrix(.99626 0 0 .99626 116.252013 0)" xlink:href="#CMR17-53"/></g></g></g><g id="xtick_5"><use id="line2d_5" x="493.663" y="285.918" stroke="#000" stroke-width=".8" xlink:href="#mee8d536064"/><g id="text_5"><defs><path id="CMR17-49" d="M26.59375 63.796875c0 2.09375-.09375 2.203125-1.5 2.203125-3.890625-4.640625-9.796875-6.109375-15.390625-6.3125-.296875 0-.796875 0-.90625-.1875-.09375-.203125-.09375-.40625-.09375-2.5C11.796875 57 17 57.59375 21 59.984375v-52.6875c0-3.5-.203125-4.703125-8.796875-4.703125h-3V0C14 .09375 19 .1875 23.796875.1875S33.59375.09375 38.40625 0v2.59375h-3c-8.609375 0-8.8125 1.09375-8.8125 4.703125z"/></defs><use transform="matrix(.19925 0 0 -.19925 489.094328 306.755495)" xlink:href="#CMR17-49"/></g></g><g id="text_6"><defs><path id="CMMI12-14" d="M26 43.671875C13.203125 40.578125 4 27.3125 4 15.640625 4 4.984375 11.203125-1 19.203125-1 31-1 39 15.15625 39 28.40625c0 8.984375-4.203125 14.453125-6.703125 17.75-3.703125 4.6875-9.703125 12.359375-9.703125 17.15625C22.59375 65 23.90625 68 28.296875 68c3.109375 0 5-1.109375 8-2.796875.90625-.609375 3.203125-1.890625 4.5-1.890625 2.109375 0 3.609375 2.09375 3.609375 3.6875 0 1.890625-1.5 2.1875-5 3-4.703125 1-6.109375 1-7.8125 1-1.6875 0-11.5 0-11.5-10.1875 0-4.890625 2.5-10.5625 5.90625-17.140625zm1.09375-1.90625c3.8125-7.875 5.3125-10.859375 5.3125-17.34375C32.40625 16.640625 28.203125 1 19.296875 1c-3.890625 0-9.5 2.578125-9.5 11.859375 0 6.484375 3.703125 25.328125 17.296875 28.90625z"/><path id="CMMI12-61" d="M42.90625 71.296875c0 .09375.59375 1.59375.59375 1.796875C43.5 74.296875 42.5 75 41.703125 75c-.5 0-1.40625 0-2.203125-2.203125L6-21.3125c0-.09375-.59375-1.59375-.59375-1.796875C5.40625-24.3125 6.40625-25 7.203125-25c.59375 0 1.5.09375 2.203125 2.1875z"/><path id="CMMI12-107" d="M28.09375 66.484375c.109375.40625.3125 1 .3125 1.5C28.40625 69 27.40625 69 27.203125 69c-.109375 0-3.703125-.3125-5.5-.515625-1.703125-.09375-3.203125-.296875-5-.390625-2.40625-.203125-3.109375-.296875-3.109375-2.109375 0-1 1-1 2-1 5.109375 0 5.109375-.875 5.109375-1.859375 0-.40625 0-.59375-.5-2.375L5.90625 3.90625C5.5 2.390625 5.5 2.203125 5.5 1.59375 5.5-.609375 7.203125-1 8.203125-1 11-1 11.59375 1.1875 12.40625 4.296875l4.6875 18.765625c7.203125-.796875 11.5-3.8125 11.5-8.625 0-.609375 0-1-.296875-2.515625-.390625-1.5-.390625-2.703125-.390625-3.203125C27.90625 2.890625 31.703125-1 36.796875-1c4.609375 0 7 4.203125 7.796875 5.609375C46.703125 8.3125 48 13.9375 48 14.328125c0 .5-.40625.90625-1 .90625-.90625 0-1-.40625-1.40625-2C44.203125 8.015625 42.09375 1 37 1c-2 0-3.296875 1-3.296875 4.8125 0 1.90625.390625 4.109375.796875 5.609375.40625 1.8125.40625 1.90625.40625 3.109375 0 5.921875-5.3125 9.234375-14.5 10.4375C24 27.171875 27.59375 31.078125 29 32.59375c5.703125 6.390625 9.59375 9.390625 14.203125 9.390625 2.296875 0 2.890625-.5 3.59375-.984375-3.703125-.40625-5.09375-3.015625-5.09375-5.015625 0-2.390625 1.890625-3.1875 3.296875-3.1875 2.703125 0 5.09375 2.296875 5.09375 5.5C50.09375 41.15625 47.796875 44 43.296875 44c-5.5 0-10-3.703125-17.09375-11.703125-1-1.21875-4.703125-5.015625-8.40625-6.421875z"/></defs><g transform="matrix(.2 0 0 -.2 255.818229 329.575089)"><use transform="scale(.99626)" xlink:href="#CMMI12-14"/><use transform="matrix(.99626 0 0 .99626 46.941386 0)" xlink:href="#CMMI12-61"/><use transform="matrix(.99626 0 0 .99626 95.716305 0)" xlink:href="#CMMI12-107"/></g></g></g><g id="matplotlib.axis_2"><g id="ytick_1"><g id="line2d_6"><defs><path id="m8f3ce11cf3" stroke="#000" stroke-width=".8" d="M0 0h-3.5"/></defs><use x="47.263" y="285.918" stroke="#000" stroke-width=".8" xlink:href="#m8f3ce11cf3"/></g><use id="text_7" transform="matrix(.19925 0 0 -.19925 31.12528 292.836997)" xlink:href="#CMR17-48"/></g><g id="ytick_2"><use id="line2d_7" x="47.263" y="150.018" stroke="#000" stroke-width=".8" xlink:href="#m8f3ce11cf3"/><use id="text_8" transform="matrix(.19925 0 0 -.19925 31.12528 156.936997)" xlink:href="#CMR17-49"/></g><g id="ytick_3"><use id="line2d_8" x="47.263" y="14.118" stroke="#000" stroke-width=".8" xlink:href="#m8f3ce11cf3"/><use id="text_9" transform="matrix(.19925 0 0 -.19925 31.12528 21.036997)" xlink:href="#CMR17-50"/></g><g id="text_10"><defs><path id="CMR17-22" d="M39.90625 55v2.296875h-34V55z"/><path id="CMMI12-11" d="M46.296875 25.234375c0 9.671875-5.5 18.765625-16.09375 18.765625C17.09375 44 4 29.71875 4 15.5625 4 6.875 9.40625-1 19.59375-1c6.203125 0 13.609375 2.390625 20.703125 8.375 1.40625-5.578125 4.5-8.375 8.796875-8.375C54.5-1 57.203125 4.578125 57.203125 5.875c0 .90625-.703125.90625-1 .90625-.796875 0-.90625-.296875-1.203125-1.09375C54.09375 3.1875 51.796875 1 49.40625 1c-3.109375 0-3.109375 6.375-3.109375 12.46875C56.5 25.640625 58.90625 38.203125 58.90625 38.296875c0 .90625-.8125.90625-1.109375.90625-.890625 0-1-.296875-1.390625-2.09375C55.09375 32.71875 52.5 24.9375 46.296875 16.75zM40 9.765625C31.203125 1.890625 23.296875 1 19.796875 1c-7.09375 0-9.09375 6.28125-9.09375 10.96875C10.703125 16.25 12.90625 26.4375 16 31.921875c4.09375 6.984375 9.703125 10.0625 14.203125 10.0625 9.703125 0 9.703125-12.65625 9.703125-21.046875 0-2.484375-.109375-5.078125-.109375-7.578125 0-1.984375.109375-2.484375.203125-3.59375z"/><path id="CMR17-40" d="M30.59375-24.40625c0 .09375 0 .296875-.296875.59375-4.59375 4.703125-16.890625 17.515625-16.890625 48.75s12.09375 43.9375 17 48.953125c0 .09375.1875.296875.1875.59375 0 .3125-.296875.515625-.6875.515625-1.109375 0-9.609375-7.421875-14.5-18.4375C10.40625 45.453125 9 34.65625 9 25.046875c0-7.21875.703125-19.421875 6.703125-32.34375C20.5-17.703125 28.703125-25 29.90625-25c.5 0 .6875.1875.6875.59375z"/><path id="CMR17-41" d="M26.296875 24.9375c0 7.203125-.703125 19.421875-6.703125 32.328125C14.796875 67.6875 6.59375 75 5.40625 75c-.3125 0-.703125-.109375-.703125-.609375 0-.203125.09375-.296875.203125-.5 4.796875-5.015625 17-17.71875 17-48.84375 0-31.234375-12.109375-43.953125-17-48.953125-.109375-.203125-.203125-.296875-.203125-.5 0-.5.390625-.59375.703125-.59375C6.5-25 15-17.609375 19.90625-6.59375c5 11.109375 6.390625 21.921875 6.390625 31.53125z"/></defs><g transform="matrix(0 -.2 -.2 0 22.14396 178.322294)"><use transform="matrix(.99626 0 0 .99626 11.204991 .006461)" xlink:href="#CMR17-22"/><use transform="scale(.99626)" xlink:href="#CMMI12-11"/><use transform="matrix(.99626 0 0 .99626 62.681023 0)" xlink:href="#CMR17-40"/><use transform="matrix(.99626 0 0 .99626 97.961791 0)" xlink:href="#CMMI12-14"/><use transform="matrix(.99626 0 0 .99626 144.903177 0)" xlink:href="#CMMI12-61"/><use transform="matrix(.99626 0 0 .99626 193.678096 0)" xlink:href="#CMMI12-107"/><use transform="matrix(.99626 0 0 .99626 247.757296 0)" xlink:href="#CMR17-41"/></g></g></g><path id="line2d_9" fill="none" stroke="#1f77b4" stroke-linecap="square" stroke-width="1.5" d="M56.191376 147.491213l8.928-2.31919 8.928-2.200642 8.928-2.121528 8.928-2.065818 8.928-2.025822 8.928-1.997211 8.928-1.977301 8.928-1.964326 8.928-1.957069 8.928-1.954661 8.928-1.956475 8.928-1.962041 8.928-1.971015 8.928-1.983139 8.928-1.998223 8.928-2.01613 8.928-2.03677 8.928-2.060085 8.928-2.086051 8.928-2.114672 8.928-2.145974 8.928-2.180007 8.928-2.216846 8.928-2.256585 8.928-2.299341 8.928-2.345256 8.928-2.394492 8.928-2.447242 8.928-2.503723 8.928-2.564183 8.928-2.628908 8.928-2.698218 8.928-2.77248 8.928-2.852107 8.928-2.937573 8.928-3.029412 8.928-3.128241 8.928-3.234761 8.928-3.349779 8.928-3.474229 8.928-3.609189 8.928-3.755921 8.928-3.915897 8.928-4.090857 8.928-4.282865 8.928-4.494387 8.928-4.728395 8.928-4.988508" clip-path="url(#pfc8e05a195)"/><path id="patch_3" fill="none" stroke="#000" stroke-linecap="square" stroke-width=".8" d="M47.263376 285.918498v-271.8"/><path id="patch_4" fill="none" stroke="#000" stroke-linecap="square" stroke-width=".8" d="M493.663376 285.918498v-271.8"/><path id="patch_5" fill="none" stroke="#000" stroke-linecap="square" stroke-width=".8" d="M47.263376 285.918498h446.4"/><path id="patch_6" fill="none" stroke="#000" stroke-linecap="square" stroke-width=".8" d="M47.263376 14.118498h446.4"/></g></g><defs><clipPath id="pfc8e05a195"><path d="M47.263376 14.118498h446.4v271.8h-446.4z"/></clipPath></defs></svg>