<svg xmlns="http://www.w3.org/2000/svg" xmlns:xlink="http://www.w3.org/1999/xlink" viewBox="0 0 507.789 339.544"><g id="figure_1"><path id="patch_1" fill="#fff" d="M0 339.543759h507.788821V0H0z"/><g id="axes_1"><path id="patch_2" fill="#fff" d="M45.050726 285.918498h446.4v-271.8h-446.4z"/><g id="matplotlib.axis_1"><g id="xtick_1"><g id="line2d_1"><defs><path id="m6270e501fd" stroke="#000" stroke-width=".8" d="M0 0v3.5"/></defs><use x="45.051" y="285.918" stroke="#000" stroke-width=".8" xlink:href="#m6270e501fd"/></g><g id="text_1"><defs><path id="CMR17-49" d="M26.59375 63.796875c0 2.09375-.09375 2.203125-1.5 2.203125-3.890625-4.640625-9.796875-6.109375-15.390625-6.3125-.296875 0-.796875 0-.90625-.1875-.09375-.203125-.09375-.40625-.09375-2.5C11.796875 57 17 57.59375 21 59.984375v-52.6875c0-3.5-.203125-4.703125-8.796875-4.703125h-3V0C14 .09375 19 .1875 23.796875.1875S33.59375.09375 38.40625 0v2.59375h-3c-8.609375 0-8.8125 1.09375-8.8125 4.703125z"/></defs><use transform="matrix(.19925 0 0 -.19925 40.481678 306.755495)" xlink:href="#CMR17-49"/></g></g><g id="xtick_2"><use id="line2d_2" x="94.651" y="285.918" stroke="#000" stroke-width=".8" xlink:href="#m6270e501fd"/><g id="text_2"><defs><path id="CMR17-50" d="M41.703125 15.46875H39.90625c-1-7.078125-1.8125-8.28125-2.203125-8.875-.5-.796875-7.703125-.796875-9.109375-.796875H9.40625C13 9.6875 20 16.765625 28.5 24.9375 34.59375 30.71875 41.703125 37.5 41.703125 47.390625 41.703125 59.1875 32.296875 66 21.796875 66c-11 0-17.703125-9.703125-17.703125-18.703125 0-3.90625 2.90625-4.40625 4.109375-4.40625 1 0 4 .59375 4 4.09375 0 3.109375-2.609375 4.015625-4 4.015625C7.59375 51 7 50.890625 6.59375 50.6875c1.90625 8.5 7.703125 12.703125 13.8125 12.703125 8.6875 0 14.390625-6.890625 14.390625-16 0-8.6875-5.09375-16.171875-10.796875-22.65625L4.09375 2.296875V0h35.203125z"/></defs><use transform="matrix(.19925 0 0 -.19925 90.081678 306.755495)" xlink:href="#CMR17-50"/></g></g><g id="xtick_3"><use id="line2d_3" x="144.251" y="285.918" stroke="#000" stroke-width=".8" xlink:href="#m6270e501fd"/><g id="text_3"><defs><path id="CMR17-51" d="M22.09375 34C31 34 34.90625 26.140625 34.90625 17.09375 34.90625 5.03125 28.5.390625 22.703125.390625c-5.296875 0-13.90625 2.625-16.609375 10.40625.5-.203125 1-.203125 1.5-.203125 2.40625 0 4.203125 1.59375 4.203125 4.203125C11.796875 17.6875 9.59375 19 7.59375 19c-1.6875 0-4.296875-.8125-4.296875-4.515625 0-9.25 9-16.484375 19.609375-16.484375C34-2 42.5 6.75 42.5 16.984375 42.5 26.84375 34.5 34 25 35.09375c7.59375 1.578125 14.90625 8.28125 14.90625 17.296875C39.90625 60.25 32 66 23 66c-9.09375 0-17.09375-5.65625-17.09375-13.703125 0-3.5 2.59375-4.109375 3.890625-4.109375 2.109375 0 3.90625 1.296875 3.90625 3.90625C13.703125 54.6875 11.90625 56 9.796875 56 9.40625 56 8.90625 56 8.5 55.796875c2.90625 6.6875 10.796875 7.890625 14.296875 7.890625S32.90625 61.96875 32.90625 52.296875c0-2.8125-.40625-7.75-3.8125-12.078125-3-3.828125-6.390625-4.03125-9.6875-4.328125-.5 0-2.8125-.203125-3.203125-.203125-.703125-.09375-1.109375-.1875-1.109375-.890625S15.203125 34 17.203125 34z"/></defs><use transform="matrix(.19925 0 0 -.19925 139.681678 306.755495)" xlink:href="#CMR17-51"/></g></g><g id="xtick_4"><use id="line2d_4" x="193.851" y="285.918" stroke="#000" stroke-width=".8" xlink:href="#m6270e501fd"/><g id="text_4"><defs><path id="CMR17-52" d="M33.59375 64.796875C33.59375 66.890625 33.5 67 31.703125 67L2 19.59375V17h25.796875V7.1875c0-3.59375-.203125-4.59375-7.203125-4.59375h-1.890625V0c3.203125.1875 8.59375.1875 12 .1875 3.390625 0 8.796875 0 12-.1875v2.59375h-1.90625c-7 0-7.203125 1-7.203125 4.59375V17h10.203125v2.59375H33.59375zm-5.5-6.625V19.59375H4z"/></defs><use transform="matrix(.19925 0 0 -.19925 189.281678 306.755495)" xlink:href="#CMR17-52"/></g></g><g id="xtick_5"><use id="line2d_5" x="243.451" y="285.918" stroke="#000" stroke-width=".8" xlink:href="#m6270e501fd"/><g id="text_5"><defs><path id="CMR17-53" d="M11.40625 58.59375c1-.40625 5.09375-1.703125 9.296875-1.703125 9.296875 0 14.390625 5 17.296875 7.796875C38 65.484375 38 66 37.40625 66c-.109375 0-.3125 0-1.109375-.40625-3.5-1.5-7.59375-2.59375-12.59375-2.59375-3 0-7.5.359375-12.40625 2.484375C10.203125 66 10 66 9.90625 66c-.5 0-.609375-.109375-.609375-2.09375V34.859375c0-1.84375 0-2.359375 1-2.359375.5 0 .703125.203125 1.203125.921875C14.703125 38.046875 19.09375 40 24.09375 40c3.5 0 11-2.265625 11-19.796875 0-3.21875 0-9.015625-3-13.609375-2.5-4.109375-6.390625-6.203125-10.6875-6.203125-6.609375 0-13.3125 4.59375-15.109375 12.296875.40625-.09375 1.203125-.296875 1.609375-.296875 1.296875 0 3.796875.703125 3.796875 3.796875 0 2.703125-1.90625 3.8125-3.796875 3.8125-2.3125 0-3.8125-1.40625-3.8125-4.203125C4.09375 7.09375 11-2 21.59375-2c10.3125 0 20.109375 8.890625 20.109375 21.796875 0 12.296875-7.796875 21.796875-17.5 21.796875-5.109375 0-9.40625-1.90625-12.796875-5.59375z"/></defs><use transform="matrix(.19925 0 0 -.19925 238.881678 306.755495)" xlink:href="#CMR17-53"/></g></g><g id="xtick_6"><use id="line2d_6" x="293.051" y="285.918" stroke="#000" stroke-width=".8" xlink:href="#m6270e501fd"/><g id="text_6"><defs><path id="CMR17-54" d="M10.59375 34.34375C10.59375 58 21.796875 63.6875 28.296875 63.6875c2.109375 0 7.203125-.421875 9.203125-4.59375-1.59375 0-4.59375 0-4.59375-3.5C32.90625 52.890625 35.09375 52 36.5 52c.90625 0 3.59375.390625 3.59375 3.796875 0 6.5-5 10.203125-11.890625 10.203125-11.90625 0-24.40625-12.703125-24.40625-34.578125C3.796875 4.015625 15.09375-2 23.09375-2 32.796875-2 42 6.734375 42 20.234375 42 32.828125 33.90625 42 23.703125 42 17.59375 42 13.09375 37.96875 10.59375 30.921875zm12.5-33.953125c-12.296875 0-12.296875 18.546875-12.296875 22.265625 0 7.25 3.40625 17.734375 12.703125 17.734375 1.703125 0 6.59375 0 9.90625-6.953125 1.796875-3.921875 1.796875-8.0625 1.796875-13.09375 0-5.4375 0-9.46875-2.109375-13.5-2.1875-4.140625-5.390625-6.453125-10-6.453125z"/></defs><use transform="matrix(.19925 0 0 -.19925 288.481678 306.755495)" xlink:href="#CMR17-54"/></g></g><g id="xtick_7"><use id="line2d_7" x="342.651" y="285.918" stroke="#000" stroke-width=".8" xlink:href="#m6270e501fd"/><g id="text_7"><defs><path id="CMR17-55" d="M45.09375 61.796875V64h-23.5c-11.6875 0-11.890625 1.09375-12.296875 3H7.5L4.59375 48.5h1.8125c.296875 1.90625 1 7 2.1875 8.890625.609375.796875 8 .796875 9.703125.796875h22l-11.09375-16.46875c-7.40625-11.078125-12.5-26.046875-12.5-39.125 0-1.203125 0-4.59375 3.59375-4.59375 3.609375 0 3.609375 3.390625 3.609375 4.6875v4.59375c0 16.375 2.796875 27.15625 7.390625 34.03125z"/></defs><use transform="matrix(.19925 0 0 -.19925 338.081678 306.755495)" xlink:href="#CMR17-55"/></g></g><g id="xtick_8"><use id="line2d_8" x="392.251" y="285.918" stroke="#000" stroke-width=".8" xlink:href="#m6270e501fd"/><g id="text_8"><defs><path id="CMR17-56" d="M27.203125 35.765625C33.5 38.96875 39.90625 43.796875 39.90625 51.53125 39.90625 60.6875 31.09375 66 23 66c-9.09375 0-17.09375-6.625-17.09375-15.765625 0-2.515625.59375-6.84375 4.5-10.65625 1-1 5.1875-4.015625 7.890625-5.921875-4.5-2.3125-15-7.84375-15-18.890625C3.296875 4.40625 13.09375-2 22.796875-2 33.5-2 42.5 5.71875 42.5 15.96875c0 9.140625-6.09375 13.359375-10.09375 16.078125zm-13.109375 8.84375c-.796875.5-4.796875 3.609375-4.796875 8.328125 0 6.140625 6.296875 10.75 13.5 10.75 7.90625 0 13.703125-5.625 13.703125-12.15625 0-9.34375-10.40625-14.671875-10.90625-14.671875-.09375 0-.1875 0-1 .609375zM32.5 24c1.5-1.09375 6.296875-4.421875 6.296875-10.546875 0-7.4375-7.390625-13.0625-15.796875-13.0625-9.09375 0-16 6.53125-16 14.46875s6.09375 14.578125 13 17.6875z"/></defs><use transform="matrix(.19925 0 0 -.19925 387.681678 306.755495)" xlink:href="#CMR17-56"/></g></g><g id="xtick_9"><use id="line2d_9" x="441.851" y="285.918" stroke="#000" stroke-width=".8" xlink:href="#m6270e501fd"/><g id="text_9"><defs><path id="CMR17-57" d="M35.203125 29.234375C35.203125 7 26.09375.390625 18.59375.390625c-2.296875 0-7.890625.28125-10.1875 4 2.59375-.390625 4.5 1 4.5 3.5 0 2.703125-2.203125 3.609375-3.609375 3.609375-.890625 0-3.59375-.40625-3.59375-3.8125C5.703125 1.0625 11.59375-2 18.796875-2 30.296875-2 42 10.390625 42 32.65625 42 60.265625 30.796875 66 23.203125 66c-9.90625 0-19.40625-8.75-19.40625-22.25 0-12.5 8.109375-21.75 18.296875-21.75C30.5 22 34.203125 29.84375 35.203125 33.15625zm-12.90625-5.640625c-2.703125 0-6.5.5-9.59375 6.546875-2.109375 3.9375-2.109375 8.5625-2.109375 13.5 0 5.953125 0 10.078125 2.8125 14.515625 1.390625 2.109375 4 5.53125 9.796875 5.53125C35 63.6875 35 45.453125 35 41.421875c0-7.15625-3.203125-17.828125-12.703125-17.828125z"/></defs><use transform="matrix(.19925 0 0 -.19925 437.281678 306.755495)" xlink:href="#CMR17-57"/></g></g><g id="xtick_10"><use id="line2d_10" x="491.451" y="285.918" stroke="#000" stroke-width=".8" xlink:href="#m6270e501fd"/><g id="text_10"><defs><path id="CMR17-48" d="M42 31.84375c0 6.125-.09375 16.578125-4.296875 24.609375C34 63.484375 28.09375 66 22.90625 66 18.09375 66 12 63.78125 8.203125 56.5625c-4-7.546875-4.40625-16.890625-4.40625-24.71875C3.796875 26.109375 3.90625 17.375 7 9.734375 11.296875-.609375 19-2 22.90625-2 27.5-2 34.5-.109375 38.59375 9.4375 41.59375 16.375 42 24.5 42 31.84375zm-19.09375-32.25C16.5-.40625 12.703125 5.125 11.296875 12.75c-1.09375 5.9375-1.09375 14.578125-1.09375 20.203125 0 7.734375 0 14.15625 1.296875 20.28125 1.90625 8.546875 7.5 11.15625 11.40625 11.15625 4.09375 0 9.390625-2.71875 11.296875-10.953125C35.5 47.71875 35.59375 40.984375 35.59375 32.953125c0-6.53125 0-14.578125-1.1875-20.5-2.109375-10.953125-8-12.859375-11.5-12.859375z"/></defs><g transform="matrix(.2 0 0 -.2 482.31263 306.755495)"><use transform="scale(.99626)" xlink:href="#CMR17-49"/><use transform="matrix(.99626 0 0 .99626 45.690477 0)" xlink:href="#CMR17-48"/></g></g></g><g id="text_11"><defs><path id="CMMI12-107" d="M28.09375 66.484375c.109375.40625.3125 1 .3125 1.5C28.40625 69 27.40625 69 27.203125 69c-.109375 0-3.703125-.3125-5.5-.515625-1.703125-.09375-3.203125-.296875-5-.390625-2.40625-.203125-3.109375-.296875-3.109375-2.109375 0-1 1-1 2-1 5.109375 0 5.109375-.875 5.109375-1.859375 0-.40625 0-.59375-.5-2.375L5.90625 3.90625C5.5 2.390625 5.5 2.203125 5.5 1.59375 5.5-.609375 7.203125-1 8.203125-1 11-1 11.59375 1.1875 12.40625 4.296875l4.6875 18.765625c7.203125-.796875 11.5-3.8125 11.5-8.625 0-.609375 0-1-.296875-2.515625-.390625-1.5-.390625-2.703125-.390625-3.203125C27.90625 2.890625 31.703125-1 36.796875-1c4.609375 0 7 4.203125 7.796875 5.609375C46.703125 8.3125 48 13.9375 48 14.328125c0 .5-.40625.90625-1 .90625-.90625 0-1-.40625-1.40625-2C44.203125 8.015625 42.09375 1 37 1c-2 0-3.296875 1-3.296875 4.8125 0 1.90625.390625 4.109375.796875 5.609375.40625 1.8125.40625 1.90625.40625 3.109375 0 5.921875-5.3125 9.234375-14.5 10.4375C24 27.171875 27.59375 31.078125 29 32.59375c5.703125 6.390625 9.59375 9.390625 14.203125 9.390625 2.296875 0 2.890625-.5 3.59375-.984375-3.703125-.40625-5.09375-3.015625-5.09375-5.015625 0-2.390625 1.890625-3.1875 3.296875-3.1875 2.703125 0 5.09375 2.296875 5.09375 5.5C50.09375 41.15625 47.796875 44 43.296875 44c-5.5 0-10-3.703125-17.09375-11.703125-1-1.21875-4.703125-5.015625-8.40625-6.421875z"/></defs><use transform="matrix(.19925 0 0 -.19925 263.177207 328.468126)" xlink:href="#CMMI12-107"/></g></g><g id="matplotlib.axis_2"><g id="ytick_1"><g id="line2d_11"><defs><path id="ma3cffc7cbe" stroke="#000" stroke-width=".8" d="M0 0h-3.5"/></defs><use x="45.051" y="285.918" stroke="#000" stroke-width=".8" xlink:href="#ma3cffc7cbe"/></g><use id="text_12" transform="matrix(.19925 0 0 -.19925 28.91263 292.836997)" xlink:href="#CMR17-48"/></g><g id="ytick_2"><use id="line2d_12" x="45.051" y="150.018" stroke="#000" stroke-width=".8" xlink:href="#ma3cffc7cbe"/><use id="text_13" transform="matrix(.19925 0 0 -.19925 28.91263 156.936997)" xlink:href="#CMR17-49"/></g><g id="ytick_3"><use id="line2d_13" x="45.051" y="14.118" stroke="#000" stroke-width=".8" xlink:href="#ma3cffc7cbe"/><use id="text_14" transform="matrix(.19925 0 0 -.19925 28.91263 21.036997)" xlink:href="#CMR17-50"/></g><g id="text_15"><defs><path id="CMMI12-11" d="M46.296875 25.234375c0 9.671875-5.5 18.765625-16.09375 18.765625C17.09375 44 4 29.71875 4 15.5625 4 6.875 9.40625-1 19.59375-1c6.203125 0 13.609375 2.390625 20.703125 8.375 1.40625-5.578125 4.5-8.375 8.796875-8.375C54.5-1 57.203125 4.578125 57.203125 5.875c0 .90625-.703125.90625-1 .90625-.796875 0-.90625-.296875-1.203125-1.09375C54.09375 3.1875 51.796875 1 49.40625 1c-3.109375 0-3.109375 6.375-3.109375 12.46875C56.5 25.640625 58.90625 38.203125 58.90625 38.296875c0 .90625-.8125.90625-1.109375.90625-.890625 0-1-.296875-1.390625-2.09375C55.09375 32.71875 52.5 24.9375 46.296875 16.75zM40 9.765625C31.203125 1.890625 23.296875 1 19.796875 1c-7.09375 0-9.09375 6.28125-9.09375 10.96875C10.703125 16.25 12.90625 26.4375 16 31.921875c4.09375 6.984375 9.703125 10.0625 14.203125 10.0625 9.703125 0 9.703125-12.65625 9.703125-21.046875 0-2.484375-.109375-5.078125-.109375-7.578125 0-1.984375.109375-2.484375.203125-3.59375z"/></defs><use transform="matrix(0 -.19925 -.19925 0 21.036997 156.223167)" xlink:href="#CMMI12-11"/></g></g><path id="line2d_14" fill="none" stroke="#1f77b4" stroke-linecap="square" stroke-width="1.5" d="M98.550282-1l1.045413 4.159451 4.504081 15.267533 4.504081 13.173983 4.504081 11.492299 4.504081 10.120553 4.504081 8.986565 4.50408 8.038049 4.504081 7.236376 4.504081 6.552497 4.504081 5.964229 4.504081 5.454388 4.50408 5.009502 4.504081 4.618876 4.504081 4.273943 4.504081 3.967766 4.504081 3.694682 4.50408 3.450032 4.504081 3.229951 4.504081 3.031215 4.504081 2.851111 4.504081 2.687349 4.50408 2.537983 4.504081 2.401346 4.504081 2.276011 4.504081 2.160745 4.504081 2.054481 4.504081 1.956287 4.50408 1.865355 4.504081 1.780973 4.504081 1.702515 4.504081 1.629428 4.504081 1.561224 4.50408 1.497472 4.504081 1.437781 4.504081 1.381809 4.504081 1.329246 4.504081 1.279816 4.50408 1.233268 4.504081 1.18938 4.504081 1.147946 4.504081 1.108784 4.504081 1.071726 4.50408 1.036623 4.504081 1.003334 4.504081.971734 4.504081.941709 4.504081.913152 4.50408.885968 4.504081.860066 4.504081.835368 4.504081.811795 4.504081.789282 4.504081.76776 4.50408.747174 4.504081.727468 4.504081.70859 4.504081.690495 4.504081.673138 4.50408.656478 4.504081.640478 4.504081.625102 4.504081.610317 4.504081.596094 4.50408.582401 4.504081.569213 4.504081.556506 4.504081.544253 4.504081.532435 4.50408.52103 4.504081.510017 4.504081.499381 4.504081.489101 4.504081.479162 4.50408.46955 4.504081.460248 4.504081.451245 4.504081.442526 4.504081.434079 4.504081.425894 4.50408.417957 4.504081.410261 4.504081.402794 4.504081.395547 4.504081.388512 4.50408.38168 4.504081.375042 4.504081.368593 4.504081.362323" clip-path="url(#p2604995bfe)"/><path id="line2d_15" fill="none" stroke="#ff7f0e" stroke-linecap="square" stroke-width="1.5" d="M45.546726 16.770395l4.504081 19.342048 4.50408 13.689817 4.504081 10.322752 4.504081 8.123184 4.504081 6.593165 4.504081 5.478946 4.50408 4.638533 4.504081 3.986749 4.504081 3.469679 4.504081 3.05168 4.504081 2.708354 4.50408 2.422486 4.504081 2.181632 4.504081 1.976587 4.504081 1.800425 4.504081 1.647838 4.504081 1.514701 4.50408 1.397768 4.504081 1.294453 4.504081 1.202672 4.504081 1.120731 4.504081 1.047239 4.50408.981048 4.504081.921201 4.504081.866893 4.504081.817447 4.504081.772286 4.50408.730917 4.504081.69292 4.504081.657927 4.504081.625627 4.504081.59574 4.50408.568029 4.504081.542282 4.504081.518315 4.504081.495963 4.504081.475081 4.504081.455541 4.50408.437227 4.504081.420037 4.504081.403879 4.504081.388669 4.504081.374335 4.50408.360808 4.504081.348027 4.504081.335938 4.504081.32449 4.504081.31364 4.50408.303342 4.504081.293561 4.504081.284264 4.504081.275414 4.504081.266988 4.50408.258953 4.504081.25129 4.504081.243973 4.504081.236981 4.504081.230296 4.50408.223899 4.504081.217773 4.504081.211904 4.504081.206276 4.504081.200878 4.504081.195694 4.50408.190715 4.504081.18593 4.504081.181329 4.504081.176901 4.504081.172638 4.50408.168533 4.504081.164577 4.504081.160763 4.504081.157083 4.504081.153533 4.50408.150104 4.504081.146794 4.504081.143594 4.504081.140502 4.504081.13751 4.50408.134616 4.504081.131816 4.504081.129104 4.504081.126477 4.504081.123932 4.50408.121465 4.504081.119074 4.504081.116753 4.504081.114503 4.504081.112318 4.504081.110197 4.50408.108137 4.504081.106136 4.504081.104192 4.504081.102301 4.504081.100464 4.50408.098676 4.504081.096938 4.504081.095245 4.504081.093598" clip-path="url(#p2604995bfe)"/><path id="patch_3" fill="none" stroke="#000" stroke-linecap="square" stroke-width=".8" d="M45.050726 285.918498v-271.8"/><path id="patch_4" fill="none" stroke="#000" stroke-linecap="square" stroke-width=".8" d="M491.450726 285.918498v-271.8"/><path id="patch_5" fill="none" stroke="#000" stroke-linecap="square" stroke-width=".8" d="M45.050726 285.918498h446.4"/><path id="patch_6" fill="none" stroke="#000" stroke-linecap="square" stroke-width=".8" d="M45.050726 14.118498h446.4"/><g id="legend_1"><path id="patch_7" fill="#fff" stroke="#ccc" d="M357.09331 89.934444h120.357416q4 0 4-4V28.118498q0-4-4-4H357.09331q-4 0-4 4v57.815946q0 4 4 4z" opacity=".8"/><path id="line2d_16" fill="none" stroke="#1f77b4" stroke-linecap="square" stroke-width="1.5" d="M361.09331 40.04452h40"/><g id="text_16"><defs><path id="CMMI12-63" d="M24.40625 17.171875L38 2.390625c.296875-.296875.59375-.5 1-.5.90625 0 .90625.796875.90625.90625 0 .296875-.3125.890625-.5 1.203125l-9.8125 16.9375L47.5 28.953125c1.203125.5 1.40625.59375 1.40625 1.1875 0 .5-.40625.890625-1 .890625l-20.203125-4.0625L25.5 46.09375C25.296875 47.5 25.296875 48 24.5 48c-.90625 0-.90625-.5-1.09375-2l-2.203125-19.03125L1 31.03125c-.59375 0-1-.390625-1-.890625 0-.59375.5-.78125 1.296875-1.1875l18-8.015625-9.59375-16.75C9 2.984375 9 2.890625 9 2.796875c0-.109375 0-.90625.90625-.90625.1875 0 .59375 0 1.5 1z"/><path id="CMR17-40" d="M30.59375-24.40625c0 .09375 0 .296875-.296875.59375-4.59375 4.703125-16.890625 17.515625-16.890625 48.75s12.09375 43.9375 17 48.953125c0 .09375.1875.296875.1875.59375 0 .3125-.296875.515625-.6875.515625-1.109375 0-9.609375-7.421875-14.5-18.4375C10.40625 45.453125 9 34.65625 9 25.046875c0-7.21875.703125-19.421875 6.703125-32.34375C20.5-17.703125 28.703125-25 29.90625-25c.5 0 .6875.1875.6875.59375z"/><path id="CMR17-41" d="M26.296875 24.9375c0 7.203125-.703125 19.421875-6.703125 32.328125C14.796875 67.6875 6.59375 75 5.40625 75c-.3125 0-.703125-.109375-.703125-.609375 0-.203125.09375-.296875.203125-.5 4.796875-5.015625 17-17.71875 17-48.84375 0-31.234375-12.109375-43.953125-17-48.953125-.109375-.203125-.203125-.296875-.203125-.5 0-.5.390625-.59375.703125-.59375C6.5-25 15-17.609375 19.90625-6.59375c5 11.109375 6.390625 21.921875 6.390625 31.53125z"/></defs><g transform="matrix(.2 0 0 -.2 417.09331 47.04452)"><use transform="scale(.99626)" xlink:href="#CMMI12-11"/><use transform="translate(62.681023 36.153639) scale(.69738)" xlink:href="#CMMI12-63"/><use transform="matrix(.99626 0 0 .99626 97.321446 0)" xlink:href="#CMR17-40"/><use transform="matrix(.99626 0 0 .99626 132.602214 0)" xlink:href="#CMMI12-107"/><use transform="matrix(.99626 0 0 .99626 186.681414 0)" xlink:href="#CMR17-41"/></g></g><path id="line2d_18" fill="none" stroke="#ff7f0e" stroke-linecap="square" stroke-width="1.5" d="M361.09331 69.953124h40"/><g id="text_17"><defs><path id="CMR17-22" d="M39.90625 55v2.296875h-34V55z"/><path id="CMMI12-61" d="M42.90625 71.296875c0 .09375.59375 1.59375.59375 1.796875C43.5 74.296875 42.5 75 41.703125 75c-.5 0-1.40625 0-2.203125-2.203125L6-21.3125c0-.09375-.59375-1.59375-.59375-1.796875C5.40625-24.3125 6.40625-25 7.203125-25c.59375 0 1.5.09375 2.203125 2.1875z"/></defs><g transform="matrix(.2 0 0 -.2 417.09331 76.953124)"><use transform="matrix(.99626 0 0 .99626 11.204991 .006461)" xlink:href="#CMR17-22"/><use transform="scale(.99626)" xlink:href="#CMMI12-11"/><use transform="matrix(.99626 0 0 .99626 62.681023 0)" xlink:href="#CMR17-40"/><use transform="matrix(.99626 0 0 .99626 97.961791 0)" xlink:href="#CMR17-49"/><use transform="matrix(.99626 0 0 .99626 143.652268 0)" xlink:href="#CMMI12-61"/><use transform="matrix(.99626 0 0 .99626 192.427187 0)" xlink:href="#CMMI12-107"/><use transform="matrix(.99626 0 0 .99626 246.506387 0)" xlink:href="#CMR17-41"/></g></g></g></g></g><defs><clipPath id="p2604995bfe"><path d="M45.050726 14.118498h446.4v271.8h-446.4z"/></clipPath></defs></svg>