<svg xmlns="http://www.w3.org/2000/svg" xmlns:xlink="http://www.w3.org/1999/xlink" width="363.569" height="243.294" version="1.1" viewBox="0 0 272.676 182.471"><metadata><rdf:RDF xmlns:cc="http://creativecommons.org/ns#" xmlns:dc="http://purl.org/dc/elements/1.1/" xmlns:rdf="http://www.w3.org/1999/02/22-rdf-syntax-ns#"><cc:Work><dc:type rdf:resource="http://purl.org/dc/dcmitype/StillImage"/><dc:date>2021-09-19T17:52:02.862550</dc:date><dc:format>image/svg+xml</dc:format><dc:creator><cc:Agent><dc:title>Matplotlib v3.3.4, https://matplotlib.org/</dc:title></cc:Agent></dc:creator></cc:Work></rdf:RDF></metadata><defs><style type="text/css">*{stroke-linecap:butt;stroke-linejoin:round}</style></defs><g id="figure_1"><g id="patch_1"><path d="M 0 182.470603 L 272.676423 182.470603 L 272.676423 0 L 0 0 z" style="fill:none"/></g><g id="axes_1"><g id="patch_2"><path d="M 39.785756 146.559249 L 262.985756 146.559249 L 262.985756 10.659249 L 39.785756 10.659249 z" style="fill:#fff"/></g><g id="matplotlib.axis_1"><g id="xtick_1"><g id="line2d_1"><defs><path id="m00673120f9" d="M 0 0 L 0 3.5" style="stroke:#000;stroke-width:.8"/></defs><g><use style="stroke:#000;stroke-width:.8" x="39.786" y="146.559" xlink:href="#m00673120f9"/></g></g><g id="text_1"><g transform="translate(37.295088 160.477748)scale(0.1 -0.1)"><defs><path id="CMR17-49" d="M 26.59375 63.796875 C 26.59375 65.890625 26.5 66 25.09375 66 C 21.203125 61.359375 15.296875 59.890625 9.703125 59.6875 C 9.40625 59.6875 8.90625 59.6875 8.796875 59.5 C 8.703125 59.296875 8.703125 59.09375 8.703125 57 C 11.796875 57 17 57.59375 21 59.984375 L 21 7.296875 C 21 3.796875 20.796875 2.59375 12.203125 2.59375 L 9.203125 2.59375 L 9.203125 0 C 14 0.09375 19 0.1875 23.796875 0.1875 C 28.59375 0.1875 33.59375 0.09375 38.40625 0 L 38.40625 2.59375 L 35.40625 2.59375 C 26.796875 2.59375 26.59375 3.6875 26.59375 7.296875 z"/></defs><use transform="scale(0.996264)" xlink:href="#CMR17-49"/></g></g></g><g id="xtick_2"><g id="line2d_2"><g><use style="stroke:#000;stroke-width:.8" x="95.586" y="146.559" xlink:href="#m00673120f9"/></g></g><g id="text_2"><g transform="translate(93.095088 160.477748)scale(0.1 -0.1)"><defs><path id="CMR17-50" d="M 41.703125 15.46875 L 39.90625 15.46875 C 38.90625 8.390625 38.09375 7.1875 37.703125 6.59375 C 37.203125 5.796875 30 5.796875 28.59375 5.796875 L 9.40625 5.796875 C 13 9.6875 20 16.765625 28.5 24.9375 C 34.59375 30.71875 41.703125 37.5 41.703125 47.390625 C 41.703125 59.1875 32.296875 66 21.796875 66 C 10.796875 66 4.09375 56.296875 4.09375 47.296875 C 4.09375 43.390625 7 42.890625 8.203125 42.890625 C 9.203125 42.890625 12.203125 43.484375 12.203125 46.984375 C 12.203125 50.09375 9.59375 51 8.203125 51 C 7.59375 51 7 50.890625 6.59375 50.6875 C 8.5 59.1875 14.296875 63.390625 20.40625 63.390625 C 29.09375 63.390625 34.796875 56.5 34.796875 47.390625 C 34.796875 38.703125 29.703125 31.21875 24 24.734375 L 4.09375 2.296875 L 4.09375 0 L 39.296875 0 z"/></defs><use transform="scale(0.996264)" xlink:href="#CMR17-50"/></g></g></g><g id="xtick_3"><g id="line2d_3"><g><use style="stroke:#000;stroke-width:.8" x="151.386" y="146.559" xlink:href="#m00673120f9"/></g></g><g id="text_3"><g transform="translate(148.895088 160.477748)scale(0.1 -0.1)"><defs><path id="CMR17-51" d="M 22.09375 34 C 31 34 34.90625 26.140625 34.90625 17.09375 C 34.90625 5.03125 28.5 0.390625 22.703125 0.390625 C 17.40625 0.390625 8.796875 3.015625 6.09375 10.796875 C 6.59375 10.59375 7.09375 10.59375 7.59375 10.59375 C 10 10.59375 11.796875 12.1875 11.796875 14.796875 C 11.796875 17.6875 9.59375 19 7.59375 19 C 5.90625 19 3.296875 18.1875 3.296875 14.484375 C 3.296875 5.234375 12.296875 -2 22.90625 -2 C 34 -2 42.5 6.75 42.5 16.984375 C 42.5 26.84375 34.5 34 25 35.09375 C 32.59375 36.671875 39.90625 43.375 39.90625 52.390625 C 39.90625 60.25 32 66 23 66 C 13.90625 66 5.90625 60.34375 5.90625 52.296875 C 5.90625 48.796875 8.5 48.1875 9.796875 48.1875 C 11.90625 48.1875 13.703125 49.484375 13.703125 52.09375 C 13.703125 54.6875 11.90625 56 9.796875 56 C 9.40625 56 8.90625 56 8.5 55.796875 C 11.40625 62.484375 19.296875 63.6875 22.796875 63.6875 C 26.296875 63.6875 32.90625 61.96875 32.90625 52.296875 C 32.90625 49.484375 32.5 44.546875 29.09375 40.21875 C 26.09375 36.390625 22.703125 36.1875 19.40625 35.890625 C 18.90625 35.890625 16.59375 35.6875 16.203125 35.6875 C 15.5 35.59375 15.09375 35.5 15.09375 34.796875 C 15.09375 34.09375 15.203125 34 17.203125 34 z"/></defs><use transform="scale(0.996264)" xlink:href="#CMR17-51"/></g></g></g><g id="xtick_4"><g id="line2d_4"><g><use style="stroke:#000;stroke-width:.8" x="207.186" y="146.559" xlink:href="#m00673120f9"/></g></g><g id="text_4"><g transform="translate(204.695088 160.477748)scale(0.1 -0.1)"><defs><path id="CMR17-52" d="M 33.59375 64.796875 C 33.59375 66.890625 33.5 67 31.703125 67 L 2 19.59375 L 2 17 L 27.796875 17 L 27.796875 7.1875 C 27.796875 3.59375 27.59375 2.59375 20.59375 2.59375 L 18.703125 2.59375 L 18.703125 0 C 21.90625 0.1875 27.296875 0.1875 30.703125 0.1875 C 34.09375 0.1875 39.5 0.1875 42.703125 0 L 42.703125 2.59375 L 40.796875 2.59375 C 33.796875 2.59375 33.59375 3.59375 33.59375 7.1875 L 33.59375 17 L 43.796875 17 L 43.796875 19.59375 L 33.59375 19.59375 z M 28.09375 58.171875 L 28.09375 19.59375 L 4 19.59375 z"/></defs><use transform="scale(0.996264)" xlink:href="#CMR17-52"/></g></g></g><g id="xtick_5"><g id="line2d_5"><g><use style="stroke:#000;stroke-width:.8" x="262.986" y="146.559" xlink:href="#m00673120f9"/></g></g><g id="text_5"><g transform="translate(260.495088 160.477748)scale(0.1 -0.1)"><defs><path id="CMR17-53" d="M 11.40625 58.59375 C 12.40625 58.1875 16.5 56.890625 20.703125 56.890625 C 30 56.890625 35.09375 61.890625 38 64.6875 C 38 65.484375 38 66 37.40625 66 C 37.296875 66 37.09375 66 36.296875 65.59375 C 32.796875 64.09375 28.703125 63 23.703125 63 C 20.703125 63 16.203125 63.359375 11.296875 65.484375 C 10.203125 66 10 66 9.90625 66 C 9.40625 66 9.296875 65.890625 9.296875 63.90625 L 9.296875 34.859375 C 9.296875 33.015625 9.296875 32.5 10.296875 32.5 C 10.796875 32.5 11 32.703125 11.5 33.421875 C 14.703125 38.046875 19.09375 40 24.09375 40 C 27.59375 40 35.09375 37.734375 35.09375 20.203125 C 35.09375 16.984375 35.09375 11.1875 32.09375 6.59375 C 29.59375 2.484375 25.703125 0.390625 21.40625 0.390625 C 14.796875 0.390625 8.09375 4.984375 6.296875 12.6875 C 6.703125 12.59375 7.5 12.390625 7.90625 12.390625 C 9.203125 12.390625 11.703125 13.09375 11.703125 16.1875 C 11.703125 18.890625 9.796875 20 7.90625 20 C 5.59375 20 4.09375 18.59375 4.09375 15.796875 C 4.09375 7.09375 11 -2 21.59375 -2 C 31.90625 -2 41.703125 6.890625 41.703125 19.796875 C 41.703125 32.09375 33.90625 41.59375 24.203125 41.59375 C 19.09375 41.59375 14.796875 39.6875 11.40625 36 z"/></defs><use transform="scale(0.996264)" xlink:href="#CMR17-53"/></g></g></g><g id="text_6"><g transform="translate(148.792461 173.333424)scale(0.1 -0.1)"><defs><path id="CMMI12-107" d="M 28.09375 66.484375 C 28.203125 66.890625 28.40625 67.484375 28.40625 67.984375 C 28.40625 69 27.40625 69 27.203125 69 C 27.09375 69 23.5 68.6875 21.703125 68.484375 C 20 68.390625 18.5 68.1875 16.703125 68.09375 C 14.296875 67.890625 13.59375 67.796875 13.59375 65.984375 C 13.59375 64.984375 14.59375 64.984375 15.59375 64.984375 C 20.703125 64.984375 20.703125 64.109375 20.703125 63.125 C 20.703125 62.71875 20.703125 62.53125 20.203125 60.75 L 5.90625 3.90625 C 5.5 2.390625 5.5 2.203125 5.5 1.59375 C 5.5 -0.609375 7.203125 -1 8.203125 -1 C 11 -1 11.59375 1.1875 12.40625 4.296875 L 17.09375 23.0625 C 24.296875 22.265625 28.59375 19.25 28.59375 14.4375 C 28.59375 13.828125 28.59375 13.4375 28.296875 11.921875 C 27.90625 10.421875 27.90625 9.21875 27.90625 8.71875 C 27.90625 2.890625 31.703125 -1 36.796875 -1 C 41.40625 -1 43.796875 3.203125 44.59375 4.609375 C 46.703125 8.3125 48 13.9375 48 14.328125 C 48 14.828125 47.59375 15.234375 47 15.234375 C 46.09375 15.234375 46 14.828125 45.59375 13.234375 C 44.203125 8.015625 42.09375 1 37 1 C 35 1 33.703125 2 33.703125 5.8125 C 33.703125 7.71875 34.09375 9.921875 34.5 11.421875 C 34.90625 13.234375 34.90625 13.328125 34.90625 14.53125 C 34.90625 20.453125 29.59375 23.765625 20.40625 24.96875 C 24 27.171875 27.59375 31.078125 29 32.59375 C 34.703125 38.984375 38.59375 41.984375 43.203125 41.984375 C 45.5 41.984375 46.09375 41.484375 46.796875 41 C 43.09375 40.59375 41.703125 37.984375 41.703125 35.984375 C 41.703125 33.59375 43.59375 32.796875 45 32.796875 C 47.703125 32.796875 50.09375 35.09375 50.09375 38.296875 C 50.09375 41.15625 47.796875 44 43.296875 44 C 37.796875 44 33.296875 40.296875 26.203125 32.296875 C 25.203125 31.078125 21.5 27.28125 17.796875 25.875 z"/></defs><use transform="scale(0.996264)" xlink:href="#CMMI12-107"/></g></g></g><g id="matplotlib.axis_2"><g id="ytick_1"><g id="line2d_6"><defs><path id="m116bbfb4fd" d="M 0 0 L -3.5 0" style="stroke:#000;stroke-width:.8"/></defs><g><use style="stroke:#000;stroke-width:.8" x="39.786" y="146.559" xlink:href="#m116bbfb4fd"/></g></g><g id="text_7"><g transform="translate(20.055677 150.018498)scale(0.1 -0.1)"><defs><path id="CMR17-48" d="M 42 31.84375 C 42 37.96875 41.90625 48.421875 37.703125 56.453125 C 34 63.484375 28.09375 66 22.90625 66 C 18.09375 66 12 63.78125 8.203125 56.5625 C 4.203125 49.015625 3.796875 39.671875 3.796875 31.84375 C 3.796875 26.109375 3.90625 17.375 7 9.734375 C 11.296875 -0.609375 19 -2 22.90625 -2 C 27.5 -2 34.5 -0.109375 38.59375 9.4375 C 41.59375 16.375 42 24.5 42 31.84375 z M 22.90625 -0.40625 C 16.5 -0.40625 12.703125 5.125 11.296875 12.75 C 10.203125 18.6875 10.203125 27.328125 10.203125 32.953125 C 10.203125 40.6875 10.203125 47.109375 11.5 53.234375 C 13.40625 61.78125 19 64.390625 22.90625 64.390625 C 27 64.390625 32.296875 61.671875 34.203125 53.4375 C 35.5 47.71875 35.59375 40.984375 35.59375 32.953125 C 35.59375 26.421875 35.59375 18.375 34.40625 12.453125 C 32.296875 1.5 26.40625 -0.40625 22.90625 -0.40625 z"/><path id="CMMI12-58" d="M 18.40625 4.796875 C 18.40625 7.6875 16 9.6875 13.59375 9.6875 C 10.703125 9.6875 8.703125 7.296875 8.703125 4.890625 C 8.703125 2 11.09375 0 13.5 0 C 16.40625 0 18.40625 2.390625 18.40625 4.796875 z"/></defs><use transform="scale(0.996264)" xlink:href="#CMR17-48"/><use transform="translate(45.690477 0)scale(0.996264)" xlink:href="#CMMI12-58"/><use transform="translate(72.787654 0)scale(0.996264)" xlink:href="#CMR17-48"/></g></g></g><g id="ytick_2"><g id="line2d_7"><g><use style="stroke:#000;stroke-width:.8" x="39.786" y="78.609" xlink:href="#m116bbfb4fd"/></g></g><g id="text_8"><g transform="translate(20.055677 82.068498)scale(0.1 -0.1)"><use transform="scale(0.996264)" xlink:href="#CMR17-48"/><use transform="translate(45.690477 0)scale(0.996264)" xlink:href="#CMMI12-58"/><use transform="translate(72.787654 0)scale(0.996264)" xlink:href="#CMR17-53"/></g></g></g><g id="ytick_3"><g id="line2d_8"><g><use style="stroke:#000;stroke-width:.8" x="39.786" y="10.659" xlink:href="#m116bbfb4fd"/></g></g><g id="text_9"><g transform="translate(20.055677 14.118498)scale(0.1 -0.1)"><use transform="scale(0.996264)" xlink:href="#CMR17-49"/><use transform="translate(45.690477 0)scale(0.996264)" xlink:href="#CMMI12-58"/><use transform="translate(72.787654 0)scale(0.996264)" xlink:href="#CMR17-48"/></g></g></g><g id="text_10"><g transform="translate(14.118498 93.587778)rotate(-90)scale(0.1 -0.1)"><defs><path id="CMMI12-115" d="M 22.796875 20.15625 C 24.5 19.859375 27.203125 19.265625 27.796875 19.171875 C 29.09375 18.765625 33.59375 17.171875 33.59375 12.390625 C 33.59375 9.296875 30.796875 1 19.203125 1 C 17.09375 1 9.59375 1.296875 7.59375 6.984375 C 11.59375 6.46875 13.59375 9.59375 13.59375 11.796875 C 13.59375 13.890625 12.203125 15 10.203125 15 C 8 15 5.09375 13.296875 5.09375 8.796875 C 5.09375 2.75 11.09375 -1 19.09375 -1 C 34.296875 -1 38.796875 10.390625 38.796875 15.59375 C 38.796875 17.078125 38.796875 19.859375 35.59375 23.046875 C 33.09375 25.421875 30.703125 25.921875 25.296875 27.015625 C 22.59375 27.609375 18.296875 28.5 18.296875 32.984375 C 18.296875 34.984375 20.09375 41.984375 29.59375 41.984375 C 33.796875 41.984375 37.90625 40.453125 38.90625 37 C 34.5 37 34.296875 33.1875 34.296875 33.09375 C 34.296875 30.984375 36.203125 30.390625 37.09375 30.390625 C 38.5 30.390625 41.296875 31.484375 41.296875 35.6875 C 41.296875 39.78125 37.5 44 29.703125 44 C 16.59375 44 13.09375 33.890625 13.09375 29.796875 C 13.09375 22.25 20.5 20.65625 22.796875 20.15625 z"/><path id="CMR17-43" d="M 37.703125 23 L 64.203125 23 C 65.59375 23 67.296875 23 67.296875 24.6875 C 67.296875 26.5 65.703125 26.5 64.203125 26.5 L 37.703125 26.5 L 37.703125 52.890625 C 37.703125 54.296875 37.703125 56 36 56 C 34.203125 56 34.203125 54.390625 34.203125 52.890625 L 34.203125 26.5 L 7.703125 26.5 C 6.296875 26.5 4.59375 26.5 4.59375 24.796875 C 4.59375 23 6.203125 23 7.703125 23 L 34.203125 23 L 34.203125 -3.03125 C 34.203125 -4.40625 34.203125 -6.109375 35.90625 -6.109375 C 37.703125 -6.109375 37.703125 -4.515625 37.703125 -3.03125 z"/></defs><use transform="scale(0.996264)" xlink:href="#CMMI12-115"/><use transform="translate(45.950048 -14.943915)scale(0.697382)" xlink:href="#CMR17-49"/><use transform="translate(100.570568 0)scale(0.996264)" xlink:href="#CMR17-43"/><use transform="translate(194.424564 0)scale(0.996264)" xlink:href="#CMMI12-115"/><use transform="translate(240.374611 -14.943915)scale(0.697382)" xlink:href="#CMR17-50"/></g></g></g><g id="line2d_9"><path d="M 39.841556 10.795013 L 42.521966 17.011745 L 45.202377 22.68407 L 48.106156 28.293923 L 51.009934 33.417691 L 53.913712 38.115926 L 57.040858 42.757876 L 60.168004 47.018738 L 63.518518 51.212127 L 67.092399 55.312392 L 70.66628 59.074545 L 74.463529 62.746178 L 78.484145 66.312167 L 82.504761 69.587096 L 86.748745 72.76595 L 91.216096 75.840272 L 95.46008 78.532643 L 95.906815 78.609249 L 262.985756 78.609249 L 262.985756 78.609249" clip-path="url(#p966cce1452)" style="fill:none;stroke:#1f77b4;stroke-linecap:square;stroke-width:1.5"/></g><g id="line2d_10"><path d="M 39.841556 10.86276 L 41.851864 17.771711 L 44.085539 24.602894 L 46.319215 30.696979 L 48.552891 36.174506 L 51.009934 41.598937 L 53.466977 46.488625 L 56.147388 51.304118 L 58.827799 55.656679 L 61.731577 59.924799 L 64.635356 63.79295 L 67.762502 67.57369 L 70.889648 71.009376 L 74.240161 74.359307 L 77.814042 77.605686 L 81.387923 80.55973 L 85.185172 83.42059 L 89.205788 86.178789 L 93.449772 88.827981 L 98.140491 91.485105 L 103.054577 94.005613 L 108.192031 96.39288 L 113.776221 98.740714 L 119.807145 101.028542 L 126.284804 103.240975 L 133.209199 105.367127 L 140.803696 107.458191 L 148.844929 109.439832 L 157.556264 111.359044 L 167.161069 113.24451 L 177.659345 115.074044 L 188.604356 116.759595 L 199.772734 118.247991 L 212.281318 119.686297 L 226.353475 121.074728 L 242.212572 122.409823 L 260.081977 123.686494 L 262.985756 123.874944 L 262.985756 123.874944" clip-path="url(#p966cce1452)" style="fill:none;stroke:#ff7f0e;stroke-linecap:square;stroke-width:1.5"/></g><g id="line2d_11"><path d="M 39.841556 10.862828 L 42.075231 18.58802 L 44.308907 25.562297 L 46.76595 32.484242 L 49.222994 38.726287 L 51.680037 44.379097 L 54.360448 49.962414 L 57.040858 55.016454 L 59.721269 59.60966 L 62.625048 64.132023 L 65.528826 68.242204 L 68.655972 72.266475 L 71.783118 75.926325 L 75.133631 79.494567 L 78.484145 82.743309 L 82.058026 85.900764 L 85.855275 88.951237 L 89.875891 91.883319 L 94.119875 94.689328 L 98.587226 97.364741 L 103.277945 99.907663 L 108.192031 102.318321 L 113.552853 104.69273 L 119.137042 106.921783 L 125.167966 109.088644 L 131.645626 111.17765 L 138.570021 113.177711 L 146.164518 115.136088 L 154.429118 117.03089 L 163.363821 118.84636 L 173.191994 120.609695 L 183.913637 122.301248 L 195.752118 123.936717 L 208.707437 125.497223 L 223.002961 126.992524 L 238.862058 128.426115 L 256.731464 129.813538 L 262.985756 130.251249 L 262.985756 130.251249" clip-path="url(#p966cce1452)" style="fill:none;stroke:#2ca02c;stroke-linecap:square;stroke-width:1.5"/></g><g id="line2d_12"><path d="M 39.841556 78.643207 L 44.755642 81.506256 L 50.116464 84.366385 L 55.700653 87.089962 L 61.731577 89.775593 L 67.985869 92.315946 L 74.686896 94.797058 L 81.834658 97.205041 L 89.429156 99.529603 L 97.693756 101.8226 L 106.405091 104.009321 L 115.786529 106.137134 L 126.061437 108.236096 L 137.229815 110.283547 L 149.291664 112.262472 L 162.246983 114.160803 L 176.542507 116.025672 L 191.954869 117.809788 L 208.930804 119.548194 L 227.470312 121.221423 L 248.020129 122.849415 L 262.985756 123.909249 L 262.985756 123.909249" clip-path="url(#p966cce1452)" style="fill:none;stroke:#d62728;stroke-linecap:square;stroke-width:1.5"/></g><g id="patch_3"><path d="M 39.785756 146.559249 L 39.785756 10.659249" style="fill:none;stroke:#000;stroke-linecap:square;stroke-linejoin:miter;stroke-width:.8"/></g><g id="patch_4"><path d="M 262.985756 146.559249 L 262.985756 10.659249" style="fill:none;stroke:#000;stroke-linecap:square;stroke-linejoin:miter;stroke-width:.8"/></g><g id="patch_5"><path d="M 39.785756 146.559249 L 262.985756 146.559249" style="fill:none;stroke:#000;stroke-linecap:square;stroke-linejoin:miter;stroke-width:.8"/></g><g id="patch_6"><path d="M 39.785756 10.659249 L 262.985756 10.659249" style="fill:none;stroke:#000;stroke-linecap:square;stroke-linejoin:miter;stroke-width:.8"/></g><g id="legend_1"><g id="patch_7"><path d="M 152.586663 77.22924 L 255.985756 77.22924 Q 257.985756 77.22924 257.985756 75.22924 L 257.985756 17.659249 Q 257.985756 15.659249 255.985756 15.659249 L 152.586663 15.659249 Q 150.586663 15.659249 150.586663 17.659249 L 150.586663 75.22924 Q 150.586663 77.22924 152.586663 77.22924 z" style="fill:#fff;opacity:.8;stroke:#ccc;stroke-linejoin:miter"/></g><g id="line2d_13"><path d="M 154.586663 23.757687 L 174.586663 23.757687" style="fill:none;stroke:#1f77b4;stroke-linecap:square;stroke-width:1.5"/></g><g id="text_11"><g transform="translate(182.586663 27.257687)scale(0.1 -0.1)"><defs><path id="CMR17-79" d="M 67.296875 33.84375 C 67.296875 54.5 52.59375 70 36 70 C 19 70 4.59375 54.296875 4.59375 33.84375 C 4.59375 13.390625 19.203125 -2 35.90625 -2 C 53 -2 67.296875 13.6875 67.296875 33.84375 z M 36 -0.203125 C 24.59375 -0.203125 12.203125 11.28125 12.203125 35.15625 C 12.203125 58.921875 25.796875 68.1875 35.90625 68.1875 C 46.5 68.1875 59.703125 58.625 59.703125 35.15625 C 59.703125 10.875 47 -0.203125 36 -0.203125 z"/><path id="CMR17-112" d="M 22 -17.40625 C 15.59375 -17.40625 15.203125 -17 15.203125 -13.03125 L 15.203125 5.9375 C 18.09375 1.703125 22.296875 -1 27.59375 -1 C 37.59375 -1 47.703125 7.859375 47.703125 21.59375 C 47.703125 34.3125 39 44 28.703125 44 C 22.703125 44 17.796875 40.671875 15 36.640625 L 15 44 L 3.09375 42.890625 L 3.09375 40.265625 C 9 40.265625 9.90625 39.671875 9.90625 34.8125 L 9.90625 -13.03125 C 9.90625 -16.890625 9.5 -17.40625 3.09375 -17.40625 L 3.09375 -20 C 5.5 -19.8125 9.90625 -19.8125 12.5 -19.8125 C 15.09375 -19.8125 19.59375 -19.8125 22 -20 z M 15.203125 31.484375 C 15.203125 32.90625 15.203125 35.015625 19.09375 38.765625 C 19.59375 39.15625 23 42.1875 28 42.1875 C 35.296875 42.1875 41.296875 33 41.296875 21.5 C 41.296875 9.984375 34.90625 0.59375 27 0.59375 C 23.40625 0.59375 19.5 2.3125 16.5 7.046875 C 15.203125 9.28125 15.203125 9.875 15.203125 11.5 z"/><path id="CMR17-116" d="M 15.09375 40.390625 L 29.09375 40.390625 L 29.09375 43 L 15.09375 43 L 15.09375 62 L 13.296875 62 C 13.09375 51.4375 9.59375 42.1875 1.09375 41.984375 L 1.09375 40.390625 L 9.796875 40.390625 L 9.796875 12.15625 C 9.796875 10.234375 9.796875 -1 21.40625 -1 C 27.296875 -1 30.703125 4.8125 30.703125 12.25 L 30.703125 17.984375 L 28.90625 17.984375 L 28.90625 12.34375 C 28.90625 5.421875 26.203125 0.796875 22 0.796875 C 19.09375 0.796875 15.09375 2.796875 15.09375 11.953125 z"/><path id="CMR17-105" d="M 15.5 61.890625 C 15.5 64.09375 13.703125 66 11.40625 66 C 9.203125 66 7.296875 64.1875 7.296875 61.890625 C 7.296875 59.6875 9.09375 57.796875 11.40625 57.796875 C 13.59375 57.796875 15.5 59.59375 15.5 61.890625 z M 3.796875 42.890625 L 3.796875 40.296875 C 9.40625 40.296875 10.203125 39.6875 10.203125 34.859375 L 10.203125 6.921875 C 10.203125 3.09375 9.796875 2.59375 3.40625 2.59375 L 3.40625 0 C 5.796875 0.1875 10.09375 0.1875 12.59375 0.1875 C 15 0.1875 19.09375 0.1875 21.40625 0 L 21.40625 2.59375 C 15.5 2.59375 15.296875 3.203125 15.296875 6.8125 L 15.296875 44 z"/><path id="CMR17-109" d="M 67.59375 30.53125 C 67.59375 35.5625 66.703125 44 54.796875 44 C 48 44 43.296875 39.375 41.5 33.953125 L 41.40625 33.953125 C 40.203125 42.1875 34.296875 44 28.703125 44 C 20.796875 44 16.703125 37.875 15.203125 33.84375 L 15.09375 33.84375 L 15.09375 44 L 3.296875 42.890625 L 3.296875 40.28125 C 9.203125 40.28125 10.09375 39.6875 10.09375 34.859375 L 10.09375 6.921875 C 10.09375 3.09375 9.703125 2.59375 3.296875 2.59375 L 3.296875 0 C 5.703125 0.1875 10.09375 0.1875 12.703125 0.1875 C 15.296875 0.1875 19.796875 0.1875 22.203125 0 L 22.203125 2.59375 C 15.796875 2.59375 15.40625 3 15.40625 6.921875 L 15.40625 26.21875 C 15.40625 35.453125 21 42.390625 28 42.390625 C 35.40625 42.390625 36.203125 35.765625 36.203125 30.9375 L 36.203125 6.921875 C 36.203125 3.09375 35.796875 2.59375 29.40625 2.59375 L 29.40625 0 C 31.796875 0.1875 36.203125 0.1875 38.796875 0.1875 C 41.40625 0.1875 45.90625 0.1875 48.296875 0 L 48.296875 2.59375 C 41.90625 2.59375 41.5 3 41.5 6.921875 L 41.5 26.21875 C 41.5 35.453125 47.09375 42.390625 54.09375 42.390625 C 61.5 42.390625 62.296875 35.765625 62.296875 30.9375 L 62.296875 6.921875 C 62.296875 3.09375 61.90625 2.59375 55.5 2.59375 L 55.5 0 C 57.90625 0.1875 62.296875 0.1875 64.90625 0.1875 C 67.5 0.1875 72 0.1875 74.40625 0 L 74.40625 2.59375 C 68 2.59375 67.59375 3 67.59375 6.921875 z"/><path id="CMR17-97" d="M 36 25.875 C 36 32 36 35.546875 31.796875 39.59375 C 28.09375 42.984375 23.796875 44 20.40625 44 C 12.5 44 6.796875 37.625 6.796875 30.890625 C 6.796875 27.1875 9.796875 27 10.40625 27 C 11.703125 27 14 27.796875 14 30.59375 C 14 33.09375 12.09375 34.1875 10.40625 34.1875 C 10 34.1875 9.5 34.09375 9.203125 34 C 11.296875 40.53125 16.703125 42.390625 20.203125 42.390625 C 25.203125 42.390625 30.703125 37.828125 30.703125 29.296875 L 30.703125 25.5 C 24.796875 25.296875 17.703125 24.5 12.09375 21.453125 C 5.796875 17.921875 4 12.84375 4 9 C 4 1.203125 13 -1 18.296875 -1 C 23.796875 -1 28.90625 2.109375 31.09375 7.890625 C 31.296875 3.421875 34.09375 -0.609375 38.5 -0.609375 C 40.59375 -0.609375 45.90625 0.796875 45.90625 8.796875 L 45.90625 14.46875 L 44.09375 14.46875 L 44.09375 8.703125 C 44.09375 2.515625 41.40625 1.703125 40.09375 1.703125 C 36 1.703125 36 6.96875 36 11.4375 z M 30.703125 13.859375 C 30.703125 5.046875 24.5 0.59375 19 0.59375 C 14 0.59375 10.09375 4.34375 10.09375 9 C 10.09375 12.046875 11.40625 17.40625 17.203125 20.65625 C 22 23.390625 27.5 23.796875 30.703125 24 z"/><path id="CMR17-108" d="M 15.296875 69 L 3.40625 67.890625 L 3.40625 65.296875 C 9.296875 65.296875 10.203125 64.703125 10.203125 59.921875 L 10.203125 6.859375 C 10.203125 3.09375 9.796875 2.59375 3.40625 2.59375 L 3.40625 0 C 5.796875 0.1875 10.203125 0.1875 12.703125 0.1875 C 15.296875 0.1875 19.703125 0.1875 22.09375 0 L 22.09375 2.59375 C 15.703125 2.59375 15.296875 2.984375 15.296875 6.859375 z"/></defs><use transform="scale(0.996264)" xlink:href="#CMR17-79"/><use transform="translate(71.714788 0)scale(0.996264)" xlink:href="#CMR17-112"/><use transform="translate(122.610158 0)scale(0.996264)" xlink:href="#CMR17-116"/><use transform="translate(157.890926 0)scale(0.996264)" xlink:href="#CMR17-105"/><use transform="translate(182.761984 0)scale(0.996264)" xlink:href="#CMR17-109"/><use transform="translate(259.681574 0)scale(0.996264)" xlink:href="#CMR17-97"/><use transform="translate(305.372051 0)scale(0.996264)" xlink:href="#CMR17-108"/></g></g><g id="line2d_15"><path d="M 154.586663 38.435812 L 174.586663 38.435812" style="fill:none;stroke:#ff7f0e;stroke-linecap:square;stroke-width:1.5"/></g><g id="text_12"><g transform="translate(182.586663 41.935812)scale(0.1 -0.1)"><defs><path id="CMR17-84" d="M 62.203125 67.6875 L 4.5 67.6875 L 2.796875 45.6875 L 4.59375 45.6875 C 5.90625 62.203125 7.296875 65.09375 22.703125 65.09375 C 24.5 65.09375 27.40625 65.09375 28.203125 64.984375 C 30.09375 64.6875 30.09375 63.5 30.09375 61.203125 L 30.09375 7.265625 C 30.09375 3.6875 29.796875 2.59375 21.5 2.59375 L 18.703125 2.59375 L 18.703125 0 C 23.5 0.09375 28.5 0.1875 33.40625 0.1875 C 38.296875 0.1875 43.296875 0.09375 48.09375 0 L 48.09375 2.59375 L 45.296875 2.59375 C 37 2.59375 36.703125 3.6875 36.703125 7.265625 L 36.703125 61.203125 C 36.703125 63.390625 36.703125 64.59375 38.5 64.984375 C 39.296875 65.09375 42.203125 65.09375 44 65.09375 C 59.296875 65.09375 60.796875 62.203125 62.09375 45.6875 L 63.90625 45.6875 z"/><path id="CMR17-117" d="M 29.40625 42.890625 L 29.40625 40.296875 C 35.296875 40.296875 36.203125 39.6875 36.203125 34.828125 L 36.203125 16.453125 C 36.203125 7.96875 31.703125 0.59375 24.296875 0.59375 C 16.09375 0.59375 15.40625 5.546875 15.40625 10.796875 L 15.40625 44 L 3.296875 42.890625 L 3.296875 40.296875 C 7.296875 40.296875 10 40.296875 10.09375 36.25 L 10.09375 16.859375 C 10.09375 10.09375 10.09375 5.75 12.703125 2.921875 C 14 1.609375 16.5 -1 23.703125 -1 C 32.203125 -1 35.5 6.25 36.296875 8.375 L 36.40625 8.375 L 36.40625 -1 L 48.296875 -0.203125 L 48.296875 2.40625 C 42.40625 2.40625 41.5 3.015625 41.5 7.859375 L 41.5 44 z"/><path id="CMR17-111" d="M 43.09375 21.1875 C 43.09375 34 33.796875 44 22.90625 44 C 12 44 2.703125 34 2.703125 21.1875 C 2.703125 8.59375 12 -1 22.90625 -1 C 33.796875 -1 43.09375 8.59375 43.09375 21.1875 z M 22.90625 0.796875 C 18.203125 0.796875 14.203125 3.59375 11.90625 7.5 C 9.40625 12 9.09375 17.59375 9.09375 22 C 9.09375 26.1875 9.296875 31.390625 11.90625 35.890625 C 13.90625 39.1875 17.796875 42.390625 22.90625 42.390625 C 27.40625 42.390625 31.203125 39.890625 33.59375 36.390625 C 36.703125 31.6875 36.703125 25.09375 36.703125 22 C 36.703125 18.09375 36.5 12.09375 33.796875 7.296875 C 31 2.6875 26.703125 0.796875 22.90625 0.796875 z"/><path id="CMR17-99" d="M 34.90625 35 C 33 35 30.203125 35 30.203125 31.484375 C 30.203125 28.6875 32.5 27.890625 33.796875 27.890625 C 34.5 27.890625 37.40625 28.1875 37.40625 31.6875 C 37.40625 38.6875 30.59375 44 22.90625 44 C 12.296875 44 3.296875 34.390625 3.296875 21.546875 C 3.296875 8.140625 12.703125 -1 22.90625 -1 C 35.296875 -1 38.40625 10.5625 38.40625 11.671875 C 38.40625 12.078125 38.296875 12.375 37.59375 12.375 C 36.90625 12.375 36.796875 12.28125 36.40625 10.96875 C 33.796875 2.8125 28.09375 0.796875 23.796875 0.796875 C 17.40625 0.796875 9.703125 6.734375 9.703125 21.640625 C 9.703125 36.84375 17.09375 42.1875 23 42.1875 C 26.90625 42.1875 32.703125 40.34375 34.90625 35 z"/><path id="CMR17-107" d="M 26.09375 26.234375 C 26 26.4375 25.5 27.03125 25.5 27.328125 C 25.5 27.53125 32.59375 33.984375 33.5 34.78125 C 39.203125 39.5625 42.796875 40.046875 45.40625 40.15625 L 45.40625 42.734375 C 44.796875 42.734375 44.59375 42.734375 44.5 42.640625 L 39.59375 42.53125 C 36.796875 42.53125 32.5 42.53125 29.796875 42.734375 L 29.796875 40.15625 C 31.203125 40.046875 32.203125 39.265625 32.203125 37.859375 C 32.203125 35.875 30.203125 33.984375 30.09375 33.984375 L 15 20.28125 L 15 69 L 3.09375 67.890625 L 3.09375 65.296875 C 9 65.296875 9.90625 64.703125 9.90625 59.921875 L 9.90625 6.859375 C 9.90625 3.09375 9.5 2.59375 3.09375 2.59375 L 3.09375 0 C 5.5 0.1875 9.90625 0.1875 12.40625 0.1875 C 14.90625 0.1875 19.296875 0.1875 21.703125 0 L 21.703125 2.59375 C 15.296875 2.59375 14.90625 2.984375 14.90625 6.859375 L 14.90625 17.796875 L 21.796875 24.0625 L 31.90625 9.15625 C 33.09375 7.359375 34.09375 5.96875 34.09375 4.671875 C 34.09375 2.890625 32.296875 2.59375 31.09375 2.59375 L 31.09375 0 C 33.5 0.1875 37.796875 0.1875 40.296875 0.1875 C 42.09375 0.1875 45.796875 0.09375 47.5 0 L 47.5 2.59375 C 42.796875 2.59375 41.703125 3.484375 38.703125 7.859375 z"/></defs><use transform="scale(0.996264)" xlink:href="#CMR17-79"/><use transform="translate(71.714788 0)scale(0.996264)" xlink:href="#CMR17-112"/><use transform="translate(122.610158 0)scale(0.996264)" xlink:href="#CMR17-116"/><use transform="translate(157.890926 0)scale(0.996264)" xlink:href="#CMR17-105"/><use transform="translate(182.761984 0)scale(0.996264)" xlink:href="#CMR17-109"/><use transform="translate(259.681574 0)scale(0.996264)" xlink:href="#CMR17-97"/><use transform="translate(305.372051 0)scale(0.996264)" xlink:href="#CMR17-108"/><use transform="translate(360.319076 0)scale(0.996264)" xlink:href="#CMR17-84"/><use transform="translate(419.021701 0)scale(0.996264)" xlink:href="#CMR17-117"/><use transform="translate(469.917071 0)scale(0.996264)" xlink:href="#CMR17-108"/><use transform="translate(494.78813 0)scale(0.996264)" xlink:href="#CMR17-108"/><use transform="translate(519.659188 0)scale(0.996264)" xlink:href="#CMR17-111"/><use transform="translate(567.952104 0)scale(0.996264)" xlink:href="#CMR17-99"/><use transform="translate(605.835311 0)scale(0.996264)" xlink:href="#CMR17-107"/></g></g><g id="line2d_17"><path d="M 154.586663 53.113937 L 174.586663 53.113937" style="fill:none;stroke:#2ca02c;stroke-linecap:square;stroke-width:1.5"/></g><g id="text_13"><g transform="translate(182.586663 56.613937)scale(0.1 -0.1)"><defs><path id="CMR17-65" d="M 36.296875 69.390625 C 35.796875 70.6875 35.59375 71 34.59375 71 C 33.59375 71 33.40625 70.6875 32.90625 69.390625 L 11.703125 9.0625 C 9.796875 3.6875 5.796875 2.59375 2.296875 2.59375 L 2.296875 0 C 4.09375 0.1875 8.09375 0.1875 10 0.1875 C 12.5 0.1875 16.5 0.1875 18.90625 0 L 18.90625 2.59375 C 14.203125 2.796875 13.5 5.96875 13.5 7.171875 C 13.5 8.0625 13.703125 8.5625 13.90625 9.15625 L 19.203125 24 L 45.40625 24 L 51.40625 7.078125 C 51.90625 5.875 51.90625 5.671875 51.90625 5.28125 C 51.90625 2.59375 47.59375 2.59375 45.703125 2.59375 L 45.703125 0 C 48.59375 0.1875 53.796875 0.1875 56.90625 0.1875 C 59.5 0.1875 64.5 0.1875 66.90625 0 L 66.90625 2.59375 C 61.59375 2.59375 59.796875 2.59375 58.5 6.28125 z M 32.296875 61.3125 L 44.5 26.59375 L 20.09375 26.59375 z"/><path id="CMR17-80" d="M 19.796875 32 L 35.796875 32 C 48.703125 32 58.09375 40.359375 58.09375 49.796875 C 58.09375 59.234375 48.90625 68 35.796875 68 L 5.203125 68 L 5.203125 65.390625 C 12.09375 65.390625 13.203125 65.390625 13.203125 60.921875 L 13.203125 7.078125 C 13.203125 2.59375 12.09375 2.59375 5.203125 2.59375 L 5.203125 0 C 8.09375 0.1875 13.40625 0.1875 16.5 0.1875 C 19.59375 0.1875 24.90625 0.1875 27.796875 0 L 27.796875 2.59375 C 20.90625 2.59375 19.796875 2.59375 19.796875 7.078125 z M 19.59375 34.09375 L 19.59375 61.515625 C 19.59375 64.890625 19.796875 65.390625 23.796875 65.390625 L 33.90625 65.390625 C 46.796875 65.390625 50.5 58.046875 50.5 49.796875 C 50.5 40.75 46.09375 34.09375 33.90625 34.09375 z"/></defs><use transform="scale(0.996264)" xlink:href="#CMR17-65"/><use transform="translate(69.07243 0)scale(0.996264)" xlink:href="#CMR17-80"/><use transform="translate(123.851475 0)scale(0.996264)" xlink:href="#CMR17-65"/></g></g><g id="line2d_19"><path d="M 154.586663 67.792062 L 174.586663 67.792062" style="fill:none;stroke:#d62728;stroke-linecap:square;stroke-width:1.5"/></g><g id="text_14"><g transform="translate(182.586663 71.292062)scale(0.1 -0.1)"><use transform="scale(0.996264)" xlink:href="#CMR17-84"/><use transform="translate(58.702625 0)scale(0.996264)" xlink:href="#CMR17-117"/><use transform="translate(109.597995 0)scale(0.996264)" xlink:href="#CMR17-108"/><use transform="translate(134.469053 0)scale(0.996264)" xlink:href="#CMR17-108"/><use transform="translate(159.340112 0)scale(0.996264)" xlink:href="#CMR17-111"/><use transform="translate(207.633028 0)scale(0.996264)" xlink:href="#CMR17-99"/><use transform="translate(245.516234 0)scale(0.996264)" xlink:href="#CMR17-107"/></g></g></g></g></g><defs><clipPath id="p966cce1452"><rect width="223.2" height="135.9" x="39.786" y="10.659"/></clipPath></defs></svg>